<svg width="132" height="17" viewBox="0 0 132 17" fill="none" xmlns="http://www.w3.org/2000/svg">
<path d="M1.41406 16.0078C1.15365 16.0078 0.924479 15.9896 0.726562 15.9531C0.528646 15.9167 0.359375 15.8672 0.21875 15.8047V14.6719C0.385417 14.724 0.565104 14.763 0.757812 14.7891C0.950521 14.8203 1.15885 14.8359 1.38281 14.8359C1.67448 14.8359 1.94271 14.7786 2.1875 14.6641C2.43229 14.5495 2.6276 14.3542 2.77344 14.0781C2.91927 13.8021 2.99219 13.4219 2.99219 12.9375V1.57812H4.32812V12.8359C4.32812 13.5495 4.20833 14.1406 3.96875 14.6094C3.73438 15.0781 3.39844 15.4271 2.96094 15.6562C2.52865 15.8906 2.01302 16.0078 1.41406 16.0078ZM14.5469 8.70312C14.5469 9.40625 14.4557 10.0339 14.2734 10.5859C14.0911 11.138 13.8281 11.6042 13.4844 11.9844C13.1406 12.3646 12.724 12.6562 12.2344 12.8594C11.75 13.0573 11.2005 13.1562 10.5859 13.1562C10.013 13.1562 9.48698 13.0573 9.00781 12.8594C8.53385 12.6562 8.1224 12.3646 7.77344 11.9844C7.42969 11.6042 7.16146 11.138 6.96875 10.5859C6.78125 10.0339 6.6875 9.40625 6.6875 8.70312C6.6875 7.76562 6.84635 6.96875 7.16406 6.3125C7.48177 5.65104 7.9349 5.14844 8.52344 4.80469C9.11719 4.45573 9.82292 4.28125 10.6406 4.28125C11.4219 4.28125 12.1042 4.45573 12.6875 4.80469C13.276 5.15365 13.7318 5.65885 14.0547 6.32031C14.3828 6.97656 14.5469 7.77083 14.5469 8.70312ZM8.03125 8.70312C8.03125 9.39062 8.1224 9.98698 8.30469 10.4922C8.48698 10.9974 8.76823 11.388 9.14844 11.6641C9.52865 11.9401 10.0182 12.0781 10.6172 12.0781C11.2109 12.0781 11.6979 11.9401 12.0781 11.6641C12.4635 11.388 12.7474 10.9974 12.9297 10.4922C13.112 9.98698 13.2031 9.39062 13.2031 8.70312C13.2031 8.02083 13.112 7.43229 12.9297 6.9375C12.7474 6.4375 12.4661 6.05208 12.0859 5.78125C11.7057 5.51042 11.2135 5.375 10.6094 5.375C9.71875 5.375 9.0651 5.66927 8.64844 6.25781C8.23698 6.84635 8.03125 7.66146 8.03125 8.70312ZM18.0859 0.84375V4.47656C18.0859 4.6849 18.0807 4.89583 18.0703 5.10938C18.0599 5.31771 18.0417 5.51042 18.0156 5.6875H18.1016C18.2786 5.38542 18.5026 5.13281 18.7734 4.92969C19.0495 4.72135 19.362 4.5651 19.7109 4.46094C20.0599 4.35156 20.4297 4.29688 20.8203 4.29688C21.5078 4.29688 22.0807 4.40625 22.5391 4.625C23.0026 4.84375 23.349 5.18229 23.5781 5.64062C23.8125 6.09896 23.9297 6.69271 23.9297 7.42188V13H22.6484V7.50781C22.6484 6.79427 22.4844 6.26042 22.1562 5.90625C21.8333 5.55208 21.3359 5.375 20.6641 5.375C20.0286 5.375 19.5208 5.4974 19.1406 5.74219C18.7656 5.98177 18.4948 6.33594 18.3281 6.80469C18.1667 7.27344 18.0859 7.84635 18.0859 8.52344V13H16.7891V0.84375H18.0859ZM30.6562 4.28125C31.6719 4.28125 32.4401 4.53125 32.9609 5.03125C33.4818 5.52604 33.7422 6.32292 33.7422 7.42188V13H32.4609V7.50781C32.4609 6.79427 32.2969 6.26042 31.9688 5.90625C31.6458 5.55208 31.1484 5.375 30.4766 5.375C29.5286 5.375 28.862 5.64323 28.4766 6.17969C28.0911 6.71615 27.8984 7.49479 27.8984 8.51562V13H26.6016V4.4375H27.6484L27.8438 5.67188H27.9141C28.0964 5.36979 28.3281 5.11719 28.6094 4.91406C28.8906 4.70573 29.2057 4.54948 29.5547 4.44531C29.9036 4.33594 30.2708 4.28125 30.6562 4.28125ZM87.1562 9.28125V8.125H91.0312V9.28125H87.1562ZM104.102 13H96.6172V11.9141L99.6719 8.8125C100.24 8.23958 100.716 7.72917 101.102 7.28125C101.492 6.83333 101.789 6.39323 101.992 5.96094C102.195 5.52344 102.297 5.04427 102.297 4.52344C102.297 3.8776 102.104 3.38542 101.719 3.04688C101.339 2.70312 100.836 2.53125 100.211 2.53125C99.6641 2.53125 99.1797 2.625 98.7578 2.8125C98.3359 3 97.9036 3.26562 97.4609 3.60938L96.7656 2.73438C97.0677 2.47917 97.3958 2.2526 97.75 2.05469C98.1094 1.85677 98.4922 1.70052 98.8984 1.58594C99.3099 1.47135 99.7474 1.41406 100.211 1.41406C100.914 1.41406 101.521 1.53646 102.031 1.78125C102.542 2.02604 102.935 2.375 103.211 2.82812C103.492 3.28125 103.633 3.82031 103.633 4.44531C103.633 5.04948 103.513 5.61198 103.273 6.13281C103.034 6.64844 102.698 7.16146 102.266 7.67188C101.833 8.17708 101.328 8.71354 100.75 9.28125L98.2656 11.7578V11.8125H104.102V13ZM113.32 7.27344C113.32 8.20052 113.25 9.02865 113.109 9.75781C112.969 10.487 112.747 11.1042 112.445 11.6094C112.143 12.1146 111.753 12.5 111.273 12.7656C110.794 13.026 110.219 13.1562 109.547 13.1562C108.698 13.1562 107.995 12.9245 107.438 12.4609C106.885 11.9974 106.471 11.3281 106.195 10.4531C105.924 9.57292 105.789 8.51302 105.789 7.27344C105.789 6.05469 105.911 5.00781 106.156 4.13281C106.406 3.2526 106.807 2.57812 107.359 2.10938C107.911 1.63542 108.641 1.39844 109.547 1.39844C110.406 1.39844 111.115 1.63281 111.672 2.10156C112.229 2.5651 112.643 3.23698 112.914 4.11719C113.185 4.99219 113.32 6.04427 113.32 7.27344ZM107.094 7.27344C107.094 8.33594 107.174 9.22135 107.336 9.92969C107.497 10.638 107.758 11.1693 108.117 11.5234C108.482 11.8724 108.958 12.0469 109.547 12.0469C110.135 12.0469 110.609 11.8724 110.969 11.5234C111.333 11.1745 111.596 10.6458 111.758 9.9375C111.924 9.22917 112.008 8.34115 112.008 7.27344C112.008 6.22656 111.927 5.35156 111.766 4.64844C111.604 3.9401 111.344 3.40885 110.984 3.05469C110.625 2.69531 110.146 2.51562 109.547 2.51562C108.948 2.51562 108.469 2.69531 108.109 3.05469C107.75 3.40885 107.49 3.9401 107.328 4.64844C107.172 5.35156 107.094 6.22656 107.094 7.27344ZM122.414 13H114.93V11.9141L117.984 8.8125C118.552 8.23958 119.029 7.72917 119.414 7.28125C119.805 6.83333 120.102 6.39323 120.305 5.96094C120.508 5.52344 120.609 5.04427 120.609 4.52344C120.609 3.8776 120.417 3.38542 120.031 3.04688C119.651 2.70312 119.148 2.53125 118.523 2.53125C117.977 2.53125 117.492 2.625 117.07 2.8125C116.648 3 116.216 3.26562 115.773 3.60938L115.078 2.73438C115.38 2.47917 115.708 2.2526 116.062 2.05469C116.422 1.85677 116.805 1.70052 117.211 1.58594C117.622 1.47135 118.06 1.41406 118.523 1.41406C119.227 1.41406 119.833 1.53646 120.344 1.78125C120.854 2.02604 121.247 2.375 121.523 2.82812C121.805 3.28125 121.945 3.82031 121.945 4.44531C121.945 5.04948 121.826 5.61198 121.586 6.13281C121.346 6.64844 121.01 7.16146 120.578 7.67188C120.146 8.17708 119.641 8.71354 119.062 9.28125L116.578 11.7578V11.8125H122.414V13ZM131.148 4.24219C131.148 4.7526 131.049 5.19531 130.852 5.57031C130.654 5.94531 130.378 6.2526 130.023 6.49219C129.669 6.72656 129.253 6.89062 128.773 6.98438V7.04688C129.68 7.16146 130.359 7.45312 130.812 7.92188C131.271 8.39062 131.5 9.00521 131.5 9.76562C131.5 10.4271 131.344 11.013 131.031 11.5234C130.724 12.0339 130.25 12.4349 129.609 12.7266C128.974 13.013 128.159 13.1562 127.164 13.1562C126.56 13.1562 126 13.1068 125.484 13.0078C124.974 12.9141 124.484 12.7552 124.016 12.5312V11.3125C124.49 11.5469 125.005 11.7318 125.562 11.8672C126.12 11.9974 126.659 12.0625 127.18 12.0625C128.221 12.0625 128.974 11.8568 129.438 11.4453C129.901 11.0286 130.133 10.4609 130.133 9.74219C130.133 9.2474 130.003 8.84896 129.742 8.54688C129.487 8.23958 129.117 8.01562 128.633 7.875C128.154 7.72917 127.576 7.65625 126.898 7.65625H125.758V6.54688H126.906C127.526 6.54688 128.052 6.45573 128.484 6.27344C128.917 6.09115 129.245 5.83594 129.469 5.50781C129.698 5.17448 129.812 4.78125 129.812 4.32812C129.812 3.75 129.62 3.30469 129.234 2.99219C128.849 2.67448 128.326 2.51562 127.664 2.51562C127.258 2.51562 126.888 2.55729 126.555 2.64062C126.221 2.72396 125.909 2.83854 125.617 2.98438C125.326 3.13021 125.034 3.29948 124.742 3.49219L124.086 2.60156C124.503 2.27865 125.01 2 125.609 1.76562C126.208 1.53125 126.888 1.41406 127.648 1.41406C128.815 1.41406 129.69 1.67969 130.273 2.21094C130.857 2.74219 131.148 3.41927 131.148 4.24219Z" fill="white"/>
<path d="M47.2109 9.96094C47.2109 10.638 47.0417 11.2161 46.7031 11.6953C46.3698 12.1693 45.901 12.5312 45.2969 12.7812C44.6927 13.0312 43.9818 13.1562 43.1641 13.1562C42.7318 13.1562 42.3229 13.1354 41.9375 13.0938C41.5521 13.0521 41.1979 12.9922 40.875 12.9141C40.5521 12.8359 40.2682 12.7396 40.0234 12.625V11.3516C40.4141 11.513 40.8906 11.6641 41.4531 11.8047C42.0156 11.9401 42.6042 12.0078 43.2188 12.0078C43.7917 12.0078 44.276 11.9323 44.6719 11.7812C45.0677 11.625 45.3672 11.4036 45.5703 11.1172C45.7786 10.8255 45.8828 10.4766 45.8828 10.0703C45.8828 9.67969 45.7969 9.35417 45.625 9.09375C45.4531 8.82812 45.1667 8.58854 44.7656 8.375C44.3698 8.15625 43.8281 7.92448 43.1406 7.67969C42.6562 7.50781 42.2292 7.32031 41.8594 7.11719C41.4896 6.90885 41.1797 6.67448 40.9297 6.41406C40.6797 6.15365 40.4896 5.85156 40.3594 5.50781C40.2344 5.16406 40.1719 4.77083 40.1719 4.32812C40.1719 3.71875 40.3255 3.19792 40.6328 2.76562C40.9453 2.32812 41.375 1.99479 41.9219 1.76562C42.474 1.53125 43.1068 1.41406 43.8203 1.41406C44.4297 1.41406 44.9922 1.47135 45.5078 1.58594C46.0286 1.70052 46.5052 1.85417 46.9375 2.04688L46.5234 3.1875C46.112 3.01562 45.6745 2.8724 45.2109 2.75781C44.7526 2.64323 44.2786 2.58594 43.7891 2.58594C43.2995 2.58594 42.8854 2.65885 42.5469 2.80469C42.2135 2.94531 41.9583 3.14583 41.7812 3.40625C41.6042 3.66667 41.5156 3.97656 41.5156 4.33594C41.5156 4.73698 41.599 5.07031 41.7656 5.33594C41.9375 5.60156 42.2083 5.83854 42.5781 6.04688C42.9531 6.25 43.4479 6.46354 44.0625 6.6875C44.7344 6.93229 45.3047 7.19271 45.7734 7.46875C46.2422 7.73958 46.599 8.07292 46.8438 8.46875C47.0885 8.85938 47.2109 9.35677 47.2109 9.96094ZM58.6484 4.28125C59.5911 4.28125 60.3021 4.52865 60.7812 5.02344C61.2604 5.51302 61.5 6.30208 61.5 7.39062V13H60.2188V7.45312C60.2188 6.76042 60.0677 6.24219 59.7656 5.89844C59.4688 5.54948 59.026 5.375 58.4375 5.375C57.6094 5.375 57.0078 5.61458 56.6328 6.09375C56.2578 6.57292 56.0703 7.27865 56.0703 8.21094V13H54.7812V7.45312C54.7812 6.98958 54.7135 6.60417 54.5781 6.29688C54.4479 5.98958 54.25 5.76042 53.9844 5.60938C53.724 5.45312 53.3932 5.375 52.9922 5.375C52.4245 5.375 51.9688 5.49219 51.625 5.72656C51.2812 5.96094 51.0312 6.3099 50.875 6.77344C50.724 7.23177 50.6484 7.79688 50.6484 8.46875V13H49.3516V4.4375H50.3984L50.5938 5.64844H50.6641C50.8359 5.35156 51.0521 5.10156 51.3125 4.89844C51.5729 4.69531 51.8646 4.54167 52.1875 4.4375C52.5104 4.33333 52.8542 4.28125 53.2188 4.28125C53.8698 4.28125 54.4141 4.40365 54.8516 4.64844C55.2943 4.88802 55.6146 5.25521 55.8125 5.75H55.8828C56.1641 5.25521 56.5495 4.88802 57.0391 4.64844C57.5286 4.40365 58.0651 4.28125 58.6484 4.28125ZM65.4609 4.4375V13H64.1641V4.4375H65.4609ZM64.8281 1.23438C65.0417 1.23438 65.224 1.30469 65.375 1.44531C65.5312 1.58073 65.6094 1.79427 65.6094 2.08594C65.6094 2.3724 65.5312 2.58594 65.375 2.72656C65.224 2.86719 65.0417 2.9375 64.8281 2.9375C64.6042 2.9375 64.4167 2.86719 64.2656 2.72656C64.1198 2.58594 64.0469 2.3724 64.0469 2.08594C64.0469 1.79427 64.1198 1.58073 64.2656 1.44531C64.4167 1.30469 64.6042 1.23438 64.8281 1.23438ZM70.9766 12.0938C71.1901 12.0938 71.4089 12.0755 71.6328 12.0391C71.8568 12.0026 72.0391 11.9583 72.1797 11.9062V12.9141C72.0286 12.9818 71.8177 13.0391 71.5469 13.0859C71.2812 13.1328 71.0208 13.1562 70.7656 13.1562C70.3125 13.1562 69.901 13.0781 69.5312 12.9219C69.1615 12.7604 68.8646 12.4896 68.6406 12.1094C68.4219 11.7292 68.3125 11.2031 68.3125 10.5312V5.45312H67.0938V4.82031L68.3203 4.3125L68.8359 2.45312H69.6172V4.4375H72.125V5.45312H69.6172V10.4922C69.6172 11.0286 69.7396 11.4297 69.9844 11.6953C70.2344 11.9609 70.5651 12.0938 70.9766 12.0938ZM75.2109 0.84375V4.47656C75.2109 4.6849 75.2057 4.89583 75.1953 5.10938C75.1849 5.31771 75.1667 5.51042 75.1406 5.6875H75.2266C75.4036 5.38542 75.6276 5.13281 75.8984 4.92969C76.1745 4.72135 76.487 4.5651 76.8359 4.46094C77.1849 4.35156 77.5547 4.29688 77.9453 4.29688C78.6328 4.29688 79.2057 4.40625 79.6641 4.625C80.1276 4.84375 80.474 5.18229 80.7031 5.64062C80.9375 6.09896 81.0547 6.69271 81.0547 7.42188V13H79.7734V7.50781C79.7734 6.79427 79.6094 6.26042 79.2812 5.90625C78.9583 5.55208 78.4609 5.375 77.7891 5.375C77.1536 5.375 76.6458 5.4974 76.2656 5.74219C75.8906 5.98177 75.6198 6.33594 75.4531 6.80469C75.2917 7.27344 75.2109 7.84635 75.2109 8.52344V13H73.9141V0.84375H75.2109Z" fill="#E65F78"/>
</svg>
