<svg width="22" height="22" viewBox="0 0 22 22" fill="none" xmlns="http://www.w3.org/2000/svg">
<path d="M15.2928 21.0268V18.1568C15.3303 17.68 15.2659 17.2006 15.1038 16.7506C14.9417 16.3006 14.6857 15.8902 14.3528 15.5468C17.4928 15.1968 20.7928 14.0068 20.7928 8.54679C20.7925 7.15062 20.2555 5.80799 19.2928 4.79679C19.7486 3.5753 19.7164 2.22514 19.2028 1.02679C19.2028 1.02679 18.0228 0.676793 15.2928 2.50679C13.0008 1.88561 10.5848 1.88561 8.29274 2.50679C5.56274 0.676793 4.38274 1.02679 4.38274 1.02679C3.86911 2.22514 3.83688 3.5753 4.29274 4.79679C3.32286 5.81549 2.78526 7.17026 2.79274 8.57679C2.79274 13.9968 6.09273 15.1868 9.23273 15.5768C8.90373 15.9168 8.65 16.3222 8.48804 16.7667C8.32609 17.2112 8.25954 17.6849 8.29274 18.1568V21.0268" stroke="white" stroke-linecap="round" stroke-linejoin="round"/>
<path d="M8.29272 19.0264C5.29272 19.9996 2.79272 19.0264 1.29272 16.0264" stroke="white" stroke-linecap="round" stroke-linejoin="round"/>
</svg>
