<svg width="22" height="22" viewBox="0 0 22 22" fill="none" xmlns="http://www.w3.org/2000/svg">
<path d="M10.7226 15.348C13.1239 15.348 15.0705 13.4014 15.0705 11.0002C15.0705 8.59893 13.1239 6.65234 10.7226 6.65234C8.3214 6.65234 6.37482 8.59893 6.37482 11.0002C6.37482 13.4014 8.3214 15.348 10.7226 15.348Z" stroke="white" stroke-linecap="round" stroke-linejoin="round"/>
<path d="M15.5053 1H5.94005C3.05856 1 0.722656 3.33591 0.722656 6.21739V15.7826C0.722656 18.6641 3.05856 21 5.94005 21H15.5053C18.3867 21 20.7227 18.6641 20.7227 15.7826V6.21739C20.7227 3.33591 18.3867 1 15.5053 1Z" stroke="white" stroke-linecap="round" stroke-linejoin="round"/>
<path d="M16.3748 6.21716C16.8551 6.21716 17.2444 5.82784 17.2444 5.34759C17.2444 4.86734 16.8551 4.47803 16.3748 4.47803C15.8946 4.47803 15.5052 4.86734 15.5052 5.34759C15.5052 5.82784 15.8946 6.21716 16.3748 6.21716Z" fill="white"/>
</svg>
