<svg width="23" height="22" viewBox="0 0 23 22" fill="none" xmlns="http://www.w3.org/2000/svg">
<path d="M12.5131 9.41744V7.50524H8.02654C8.08645 8.77186 8.02654 20.9996 8.02654 20.9996H12.5131V13.4634C12.5131 13.0593 12.5434 12.6576 12.6618 12.3693C12.9866 11.5631 13.7238 10.7288 14.9645 10.7288C16.5876 10.7288 17.2368 11.9666 17.2368 13.7803V21H21.7227V13.2617C21.7227 9.11649 19.5095 7.18841 16.5569 7.18804C14.1738 7.18804 13.1086 8.49977 12.5131 9.41744ZM12.5131 9.41744C12.5045 9.43224 12.4926 9.4474 12.4839 9.46147H12.5131V9.41744ZM3.33174 1C1.797 1 0.792725 2.0068 0.792725 3.3308C0.792725 4.62629 1.76741 5.66377 3.2722 5.66377H3.30251C4.86648 5.66377 5.84009 4.62629 5.84009 3.3308C5.81086 2.0068 4.86685 1 3.33174 1ZM1.05868 20.9996H5.54454V7.5056H1.05868V20.9996Z" stroke="white" stroke-miterlimit="10" stroke-linecap="round" stroke-linejoin="round"/>
</svg>
