<svg width="446" height="124" viewBox="0 0 446 124" fill="none" xmlns="http://www.w3.org/2000/svg">
<g filter="url(#filter0_d_223_241)">
<path d="M11.5117 83.1367C9.94141 83.1367 8.57031 83.0547 7.39844 82.8906C6.20312 82.75 5.17188 82.5859 4.30469 82.3984V71.6055C5.05469 71.7461 5.85156 71.8984 6.69531 72.0625C7.53906 72.25 8.45312 72.3438 9.4375 72.3438C11.1016 72.3438 12.3906 72.0039 13.3047 71.3242C14.2422 70.6445 14.8984 69.625 15.2734 68.2656C15.6484 66.9062 15.8359 65.207 15.8359 63.168V15.6016H29.793V61.9727C29.793 67.1289 29.0195 71.2539 27.4727 74.3477C25.9258 77.4414 23.7812 79.6797 21.0391 81.0625C18.2969 82.4453 15.1211 83.1367 11.5117 83.1367ZM78.168 46.9961C78.168 50.3242 77.7109 53.2773 76.7969 55.8555C75.8828 58.4336 74.5586 60.6016 72.8242 62.3594C71.0898 64.1172 68.9922 65.4531 66.5312 66.3672C64.0703 67.2578 61.293 67.7031 58.1992 67.7031C55.3164 67.7031 52.668 67.2578 50.2539 66.3672C47.8633 65.4531 45.7773 64.1172 43.9961 62.3594C42.2148 60.6016 40.832 58.4336 39.8477 55.8555C38.8867 53.2773 38.4062 50.3242 38.4062 46.9961C38.4062 42.5898 39.2031 38.8633 40.7969 35.8164C42.4141 32.7695 44.7109 30.4492 47.6875 28.8555C50.6875 27.2617 54.2617 26.4648 58.4102 26.4648C62.2305 26.4648 65.6289 27.2617 68.6055 28.8555C71.582 30.4492 73.9141 32.7695 75.6016 35.8164C77.3125 38.8633 78.168 42.5898 78.168 46.9961ZM52.3633 46.9961C52.3633 49.2695 52.5625 51.1914 52.9609 52.7617C53.3594 54.3086 53.9922 55.4922 54.8594 56.3125C55.75 57.1094 56.9102 57.5078 58.3398 57.5078C59.7695 57.5078 60.9062 57.1094 61.75 56.3125C62.5938 55.4922 63.2031 54.3086 63.5781 52.7617C63.9766 51.1914 64.1758 49.2695 64.1758 46.9961C64.1758 44.7227 63.9766 42.8242 63.5781 41.3008C63.2031 39.7773 62.582 38.6289 61.7148 37.8555C60.8711 37.082 59.7227 36.6953 58.2695 36.6953C56.1836 36.6953 54.6719 37.5625 53.7344 39.2969C52.8203 41.0312 52.3633 43.5977 52.3633 46.9961ZM99.7891 12.2969V20.0664C99.7891 23.0195 99.7188 25.5039 99.5781 27.5195C99.4609 29.5117 99.3438 31.0352 99.2266 32.0898H99.8594C100.727 30.707 101.711 29.6055 102.812 28.7852C103.914 27.9648 105.133 27.3789 106.469 27.0273C107.805 26.6523 109.258 26.4648 110.828 26.4648C113.453 26.4648 115.82 26.9687 117.93 27.9766C120.062 28.9844 121.762 30.5664 123.027 32.7227C124.293 34.8555 124.926 37.6445 124.926 41.0898V67H111.109V45.2734C111.109 42.625 110.723 40.6328 109.949 39.2969C109.176 37.9375 107.98 37.2578 106.363 37.2578C104.699 37.2578 103.387 37.7383 102.426 38.6992C101.465 39.6367 100.785 41.0195 100.387 42.8477C99.9883 44.6523 99.7891 46.8672 99.7891 49.4922V67H86.043V12.2969H99.7891ZM159.203 26.4648C163.305 26.4648 166.656 27.625 169.258 29.9453C171.859 32.2656 173.16 35.9805 173.16 41.0898V67H159.414V45.2734C159.414 42.625 159.027 40.6328 158.254 39.2969C157.504 37.9375 156.285 37.2578 154.598 37.2578C151.996 37.2578 150.25 38.3242 149.359 40.457C148.469 42.5664 148.023 45.6016 148.023 49.5625V67H134.277V27.168H144.648L146.512 32.4414H147.039C147.883 31.1758 148.891 30.0977 150.062 29.207C151.234 28.3164 152.582 27.6367 154.105 27.168C155.629 26.6992 157.328 26.4648 159.203 26.4648Z" fill="white"/>
<path d="M235.633 51.3906C235.633 54.1797 234.93 56.8281 233.523 59.3359C232.117 61.8203 229.926 63.8359 226.949 65.3828C223.996 66.9297 220.176 67.7031 215.488 67.7031C213.145 67.7031 211.082 67.5977 209.301 67.3867C207.543 67.1758 205.902 66.8359 204.379 66.3672C202.855 65.875 201.273 65.2422 199.633 64.4688V52.0938C202.422 53.5 205.234 54.5781 208.07 55.3281C210.906 56.0547 213.473 56.418 215.77 56.418C217.152 56.418 218.277 56.2539 219.145 55.9258C220.035 55.5977 220.691 55.1523 221.113 54.5898C221.535 54.0039 221.746 53.3359 221.746 52.5859C221.746 51.6953 221.43 50.9453 220.797 50.3359C220.188 49.7031 219.203 49.0469 217.844 48.3672C216.484 47.6875 214.691 46.8438 212.465 45.8359C210.566 44.9453 208.844 44.0312 207.297 43.0938C205.773 42.1562 204.461 41.0898 203.359 39.8945C202.281 38.6758 201.449 37.2578 200.863 35.6406C200.277 34.0234 199.984 32.1133 199.984 29.9102C199.984 26.6055 200.793 23.8398 202.41 21.6133C204.051 19.3633 206.324 17.6758 209.23 16.5508C212.16 15.4258 215.535 14.8633 219.355 14.8633C222.707 14.8633 225.719 15.2383 228.391 15.9883C231.086 16.7383 233.5 17.5938 235.633 18.5547L231.379 29.2773C229.176 28.2695 227.008 27.4727 224.875 26.8867C222.742 26.2773 220.762 25.9727 218.934 25.9727C217.738 25.9727 216.754 26.125 215.98 26.4297C215.23 26.7109 214.668 27.0977 214.293 27.5898C213.941 28.082 213.766 28.6445 213.766 29.2773C213.766 30.0742 214.07 30.7891 214.68 31.4219C215.312 32.0547 216.355 32.7461 217.809 33.4961C219.285 34.2227 221.289 35.1719 223.82 36.3438C226.328 37.4688 228.461 38.6875 230.219 40C231.977 41.2891 233.312 42.8477 234.227 44.6758C235.164 46.4805 235.633 48.7188 235.633 51.3906ZM291.391 26.4648C295.938 26.4648 299.406 27.625 301.797 29.9453C304.211 32.2656 305.418 35.9805 305.418 41.0898V67H291.672V45.3438C291.672 42.3203 291.262 40.2227 290.441 39.0508C289.645 37.8555 288.449 37.2578 286.855 37.2578C284.629 37.2578 283.082 38.2305 282.215 40.1758C281.371 42.1211 280.949 44.875 280.949 48.4375V67H267.168V45.3438C267.168 43.4219 266.992 41.875 266.641 40.7031C266.312 39.5078 265.809 38.6406 265.129 38.1016C264.449 37.5391 263.594 37.2578 262.562 37.2578C260.992 37.2578 259.762 37.7383 258.871 38.6992C258.004 39.6367 257.395 41.0195 257.043 42.8477C256.691 44.6758 256.516 46.9141 256.516 49.5625V67H242.77V27.168H253.141L255.145 32.0898H255.531C256.234 31.0117 257.137 30.0508 258.238 29.207C259.363 28.3633 260.688 27.6953 262.211 27.2031C263.758 26.7109 265.516 26.4648 267.484 26.4648C270.414 26.4648 272.828 26.957 274.727 27.9414C276.625 28.9258 278.172 30.2852 279.367 32.0195H279.789C281.055 30.2383 282.684 28.8672 284.676 27.9062C286.668 26.9453 288.906 26.4648 291.391 26.4648ZM328.586 27.168V67H314.84V27.168H328.586ZM321.766 11.1367C323.734 11.1367 325.445 11.5469 326.898 12.3672C328.375 13.1875 329.113 14.8164 329.113 17.2539C329.113 19.6211 328.375 21.2266 326.898 22.0703C325.445 22.8906 323.734 23.3008 321.766 23.3008C319.75 23.3008 318.027 22.8906 316.598 22.0703C315.191 21.2266 314.488 19.6211 314.488 17.2539C314.488 14.8164 315.191 13.1875 316.598 12.3672C318.027 11.5469 319.75 11.1367 321.766 11.1367ZM357.695 56.8398C358.938 56.8398 360.074 56.7109 361.105 56.4531C362.137 56.1953 363.215 55.8672 364.34 55.4688V65.4883C362.84 66.1445 361.246 66.6719 359.559 67.0703C357.895 67.4922 355.762 67.7031 353.16 67.7031C350.582 67.7031 348.309 67.3047 346.34 66.5078C344.371 65.6875 342.836 64.2812 341.734 62.2891C340.656 60.2734 340.117 57.4727 340.117 53.8867V37.4688H335.301V31.8789L341.418 27.5547L344.969 19.1875H353.969V27.168H363.742V37.4688H353.969V52.9727C353.969 54.2617 354.297 55.2344 354.953 55.8906C355.609 56.5234 356.523 56.8398 357.695 56.8398ZM385.047 12.2969V20.0664C385.047 23.0195 384.977 25.5039 384.836 27.5195C384.719 29.5117 384.602 31.0352 384.484 32.0898H385.117C385.984 30.707 386.969 29.6055 388.07 28.7852C389.172 27.9648 390.391 27.3789 391.727 27.0273C393.062 26.6523 394.516 26.4648 396.086 26.4648C398.711 26.4648 401.078 26.9687 403.188 27.9766C405.32 28.9844 407.02 30.5664 408.285 32.7227C409.551 34.8555 410.184 37.6445 410.184 41.0898V67H396.367V45.2734C396.367 42.625 395.98 40.6328 395.207 39.2969C394.434 37.9375 393.238 37.2578 391.621 37.2578C389.957 37.2578 388.645 37.7383 387.684 38.6992C386.723 39.6367 386.043 41.0195 385.645 42.8477C385.246 44.6523 385.047 46.8672 385.047 49.4922V67H371.301V12.2969H385.047Z" fill="#E65F78"/>
<path d="M7.39844 82.8906L7.53709 81.9003L7.5262 81.8988L7.51528 81.8975L7.39844 82.8906ZM4.30469 82.3984H3.30469V83.2053L4.09335 83.3759L4.30469 82.3984ZM4.30469 71.6055L4.48898 70.6226L3.30469 70.4005V71.6055H4.30469ZM6.69531 72.0625L6.91224 71.0863L6.89925 71.0834L6.88618 71.0809L6.69531 72.0625ZM13.3047 71.3242L12.7177 70.5145L12.708 70.5218L13.3047 71.3242ZM15.8359 15.6016V14.6016H14.8359V15.6016H15.8359ZM29.793 15.6016H30.793V14.6016H29.793V15.6016ZM11.5117 82.1367C9.97379 82.1367 8.65098 82.0562 7.53709 81.9003L7.25979 83.881C8.48965 84.0531 9.90903 84.1367 11.5117 84.1367V82.1367ZM7.51528 81.8975C6.34135 81.7594 5.34323 81.5999 4.51602 81.421L4.09335 83.3759C5.00052 83.572 6.0649 83.7406 7.2816 83.8838L7.51528 81.8975ZM5.30469 82.3984V71.6055H3.30469V82.3984H5.30469ZM4.1204 72.5883C4.86795 72.7285 5.66262 72.8804 6.50444 73.0441L6.88618 71.0809C6.04051 70.9164 5.24142 70.7637 4.48898 70.6226L4.1204 72.5883ZM6.47838 73.0387C7.40239 73.244 8.39003 73.3438 9.4375 73.3438V71.3438C8.51622 71.3438 7.67574 71.256 6.91224 71.0863L6.47838 73.0387ZM9.4375 73.3438C11.2215 73.3438 12.7516 72.9816 13.9014 72.1267L12.708 70.5218C12.0296 71.0262 10.9816 71.3438 9.4375 71.3438V73.3438ZM13.8917 72.1338C15.0503 71.2938 15.8156 70.0605 16.2374 68.5316L14.3094 67.9997C13.9812 69.1895 13.4341 69.9953 12.7177 70.5146L13.8917 72.1338ZM16.2374 68.5316C16.6444 67.0565 16.8359 65.2607 16.8359 63.168H14.8359C14.8359 65.1534 14.6525 66.756 14.3094 67.9997L16.2374 68.5316ZM16.8359 63.168V15.6016H14.8359V63.168H16.8359ZM15.8359 16.6016H29.793V14.6016H15.8359V16.6016ZM28.793 15.6016V61.9727H30.793V15.6016H28.793ZM28.793 61.9727C28.793 67.0436 28.03 70.9969 26.5782 73.9004L28.3671 74.7949C30.009 71.5109 30.793 67.2142 30.793 61.9727H28.793ZM26.5782 73.9004C25.1149 76.8272 23.1149 78.8958 20.5888 80.1696L21.4893 81.9554C24.4476 80.4636 26.7367 78.0556 28.3671 74.7949L26.5782 73.9004ZM20.5888 80.1696C18.0088 81.4706 14.992 82.1367 11.5117 82.1367V84.1367C15.2502 84.1367 18.585 83.42 21.4893 81.9554L20.5888 80.1696ZM66.5312 66.3672L66.8716 67.3075L66.8794 67.3046L66.5312 66.3672ZM50.2539 66.3672L49.8967 67.3013L49.9078 67.3054L50.2539 66.3672ZM39.8477 55.8555L38.9106 56.2047L38.9134 56.2122L39.8477 55.8555ZM40.7969 35.8164L39.9136 35.3476L39.9108 35.3529L40.7969 35.8164ZM47.6875 28.8555L47.2183 27.9723L47.2155 27.9739L47.6875 28.8555ZM75.6016 35.8164L74.7268 36.3009L74.7296 36.306L75.6016 35.8164ZM52.9609 52.7617L51.9916 53.0077L51.9925 53.0112L52.9609 52.7617ZM54.8594 56.3125L54.1722 57.039L54.1822 57.0485L54.1926 57.0577L54.8594 56.3125ZM61.75 56.3125L62.4366 57.0395L62.4419 57.0345L62.4471 57.0295L61.75 56.3125ZM63.5781 52.7617L62.6088 52.5158L62.6063 52.5261L63.5781 52.7617ZM63.5781 41.3008L62.6071 41.5398L62.6088 41.5468L62.6107 41.5538L63.5781 41.3008ZM61.7148 37.8555L61.0391 38.5927L61.0492 38.6018L61.7148 37.8555ZM53.7344 39.2969L52.8546 38.8213L52.8497 38.8306L53.7344 39.2969ZM77.168 46.9961C77.168 50.2342 76.7231 53.0709 75.8544 55.5213L77.7394 56.1896C78.6987 53.4838 79.168 50.4142 79.168 46.9961H77.168ZM75.8544 55.5213C74.984 57.9763 73.7332 60.0143 72.1124 61.657L73.5361 63.0617C75.384 61.1888 76.7817 58.8909 77.7394 56.1896L75.8544 55.5213ZM72.1124 61.657C70.487 63.3044 68.5159 64.5633 66.1831 65.4298L66.8794 67.3046C69.4685 66.343 71.6927 64.93 73.5361 63.0617L72.1124 61.657ZM66.1909 65.4269C63.857 66.2715 61.1976 66.7031 58.1992 66.7031V68.7031C61.3884 68.7031 64.2837 68.2441 66.8716 67.3075L66.1909 65.4269ZM58.1992 66.7031C55.4204 66.7031 52.8908 66.2741 50.6 65.429L49.9078 67.3054C52.4452 68.2415 55.2124 68.7031 58.1992 68.7031V66.7031ZM50.611 65.4331C48.3466 64.5673 46.379 63.306 44.6985 61.6476L43.2937 63.0711C45.1757 64.9284 47.3799 66.3389 49.8968 67.3012L50.611 65.4331ZM44.6985 61.6476C43.0291 60.0001 41.7205 57.9572 40.7819 55.4988L38.9134 56.2122C39.9435 58.91 41.4006 61.203 43.2937 63.0711L44.6985 61.6476ZM40.7847 55.5062C39.8731 53.0605 39.4062 50.2292 39.4062 46.9961H37.4062C37.4062 50.4192 37.9003 53.4942 38.9106 56.2047L40.7847 55.5062ZM39.4062 46.9961C39.4062 42.7071 40.1821 39.1491 41.683 36.2799L39.9108 35.3529C38.2241 38.5774 37.4062 42.4726 37.4062 46.9961H39.4062ZM41.6802 36.2852C43.2064 33.4097 45.362 31.235 48.1595 29.7371L47.2155 27.9739C44.0599 29.6635 41.6217 32.1294 39.9136 35.3476L41.6802 36.2852ZM48.1567 29.7386C50.9836 28.2368 54.3895 27.4648 58.4102 27.4648V25.4648C54.1339 25.4648 50.3914 26.2867 47.2183 27.9724L48.1567 29.7386ZM58.4102 27.4648C62.0877 27.4648 65.3202 28.2308 68.1334 29.7371L69.0775 27.9739C65.9376 26.2927 62.3732 25.4648 58.4102 25.4648V27.4648ZM68.1334 29.7371C70.9348 31.237 73.1294 33.4168 74.7268 36.3009L76.4764 35.3319C74.6987 32.1223 72.2293 29.6615 69.0775 27.9739L68.1334 29.7371ZM74.7296 36.306C76.3374 39.1692 77.168 42.7173 77.168 46.9961H79.168C79.168 42.4623 78.2876 38.5574 76.4735 35.3268L74.7296 36.306ZM51.3633 46.9961C51.3633 49.322 51.5665 51.332 51.9917 53.0077L53.9302 52.5158C53.5585 51.0509 53.3633 49.2171 53.3633 46.9961H51.3633ZM51.9925 53.0112C52.4225 54.6803 53.1293 56.0525 54.1722 57.039L55.5466 55.586C54.8551 54.9319 54.2963 53.9368 53.9293 52.5123L51.9925 53.0112ZM54.1926 57.0577C55.3012 58.0497 56.715 58.5078 58.3398 58.5078V56.5078C57.1053 56.5078 56.1988 56.169 55.5262 55.5673L54.1926 57.0577ZM58.3398 58.5078C59.9626 58.5078 61.3664 58.0503 62.4366 57.0395L61.0634 55.5855C60.4461 56.1685 59.5765 56.5078 58.3398 56.5078V58.5078ZM62.4471 57.0295C63.4657 56.0392 64.1458 54.6647 64.55 52.9973L62.6063 52.5261C62.2605 53.9524 61.7218 54.9452 61.0529 55.5955L62.4471 57.0295ZM64.5474 53.0077C64.9726 51.332 65.1758 49.322 65.1758 46.9961H63.1758C63.1758 49.2171 62.9805 51.0509 62.6088 52.5158L64.5474 53.0077ZM65.1758 46.9961C65.1758 44.6715 64.9728 42.6814 64.5456 41.0478L62.6107 41.5538C62.9803 42.967 63.1758 44.7738 63.1758 46.9961H65.1758ZM64.5491 41.0618C64.1424 39.4095 63.4428 38.0567 62.3805 37.1092L61.0492 38.6018C61.7213 39.2011 62.2638 40.1452 62.6071 41.5398L64.5491 41.0618ZM62.3906 37.1183C61.3166 36.1339 59.9029 35.6953 58.2695 35.6953V37.6953C59.5424 37.6953 60.4256 38.0302 61.0391 38.5926L62.3906 37.1183ZM58.2695 35.6953C57.0864 35.6953 56.0083 35.9422 55.0737 36.4783C54.1361 37.0161 53.4 37.8126 52.8547 38.8214L54.6141 39.7724C55.0063 39.0468 55.4948 38.5424 56.0689 38.2131C56.646 37.8821 57.3667 37.6953 58.2695 37.6953V35.6953ZM52.8497 38.8306C51.8232 40.7784 51.3633 43.5383 51.3633 46.9961H53.3633C53.3633 43.657 53.8175 41.2841 54.619 39.7631L52.8497 38.8306ZM99.7891 12.2969H100.789V11.2969H99.7891V12.2969ZM99.5781 27.5195L98.5805 27.4499L98.5799 27.4608L99.5781 27.5195ZM99.2266 32.0898L98.2327 31.9794L98.1093 33.0898H99.2266V32.0898ZM99.8594 32.0898V33.0898H100.413L100.707 32.6211L99.8594 32.0898ZM106.469 27.0273L106.723 27.9944L106.731 27.9923L106.739 27.9901L106.469 27.0273ZM117.93 27.9766L117.499 28.8789L117.502 28.8807L117.93 27.9766ZM123.027 32.7227L122.165 33.2289L122.167 33.233L123.027 32.7227ZM124.926 67V68H125.926V67H124.926ZM111.109 67H110.109V68H111.109V67ZM109.949 39.2969L109.08 39.7914L109.084 39.7979L109.949 39.2969ZM102.426 38.6992L103.124 39.4151L103.133 39.4063L102.426 38.6992ZM100.387 42.8477L101.363 43.0632L101.364 43.0606L100.387 42.8477ZM99.7891 67V68H100.789V67H99.7891ZM86.043 67H85.043V68H86.043V67ZM86.043 12.2969V11.2969H85.043V12.2969H86.043ZM98.7891 12.2969V20.0664H100.789V12.2969H98.7891ZM98.7891 20.0664C98.7891 23.0058 98.719 25.4654 98.5805 27.4499L100.576 27.5891C100.718 25.5425 100.789 23.0332 100.789 20.0664H98.7891ZM98.5799 27.4608C98.463 29.4479 98.347 30.9508 98.2327 31.9794L100.22 32.2003C100.341 31.1195 100.459 29.5755 100.576 27.5783L98.5799 27.4608ZM99.2266 33.0898H99.8594V31.0898H99.2266V33.0898ZM100.707 32.6211C101.52 31.3239 102.424 30.321 103.41 29.5872L102.215 27.9831C100.998 28.8899 99.9331 30.0901 99.0122 31.5586L100.707 32.6211ZM103.41 29.5872C104.408 28.8438 105.51 28.3136 106.723 27.9944L106.214 26.0603C104.755 26.4442 103.42 27.0859 102.215 27.9831L103.41 29.5872ZM106.739 27.9901C107.976 27.6428 109.337 27.4648 110.828 27.4648V25.4648C109.178 25.4648 107.633 25.6619 106.198 26.0646L106.739 27.9901ZM110.828 27.4648C113.322 27.4648 115.54 27.9429 117.499 28.8789L118.361 27.0743C116.101 25.9946 113.584 25.4648 110.828 25.4648V27.4648ZM117.502 28.8807C119.442 29.7974 120.995 31.235 122.165 33.2289L123.89 32.2165C122.529 29.8978 120.683 28.1714 118.357 27.0724L117.502 28.8807ZM122.167 33.233C123.312 35.1626 123.926 37.7574 123.926 41.0898H125.926C125.926 37.5317 125.274 34.5484 123.887 32.2123L122.167 33.233ZM123.926 41.0898V67H125.926V41.0898H123.926ZM124.926 66H111.109V68H124.926V66ZM112.109 67V45.2734H110.109V67H112.109ZM112.109 45.2734C112.109 42.5594 111.719 40.3573 110.815 38.7958L109.084 39.7979C109.727 40.9083 110.109 42.6906 110.109 45.2734H112.109ZM110.818 38.8024C109.86 37.1176 108.325 36.2578 106.363 36.2578V38.2578C107.636 38.2578 108.492 38.7574 109.08 39.7914L110.818 38.8024ZM106.363 36.2578C104.497 36.2578 102.908 36.8032 101.719 37.9921L103.133 39.4063C103.866 38.6734 104.901 38.2578 106.363 38.2578V36.2578ZM101.727 37.9834C100.581 39.1016 99.834 40.6879 99.4097 42.6347L101.364 43.0606C101.736 41.3512 102.348 40.1718 103.124 39.415L101.727 37.9834ZM99.4102 42.6321C98.9912 44.5302 98.7891 46.8223 98.7891 49.4922H100.789C100.789 46.9121 100.985 44.7745 101.363 43.0632L99.4102 42.6321ZM98.7891 49.4922V67H100.789V49.4922H98.7891ZM99.7891 66H86.043V68H99.7891V66ZM87.043 67V12.2969H85.043V67H87.043ZM86.043 13.2969H99.7891V11.2969H86.043V13.2969ZM173.16 67V68H174.16V67H173.16ZM159.414 67H158.414V68H159.414V67ZM158.254 39.2969L157.378 39.78L157.383 39.789L157.388 39.7979L158.254 39.2969ZM149.359 40.457L150.281 40.846L150.282 40.8424L149.359 40.457ZM148.023 67V68H149.023V67H148.023ZM134.277 67H133.277V68H134.277V67ZM134.277 27.168V26.168H133.277V27.168H134.277ZM144.648 27.168L145.591 26.8348L145.356 26.168H144.648V27.168ZM146.512 32.4414L145.569 32.7746L145.804 33.4414H146.512V32.4414ZM147.039 32.4414V33.4414H147.574L147.871 32.9961L147.039 32.4414ZM159.203 27.4648C163.105 27.4648 166.205 28.5629 168.592 30.6916L169.923 29.199C167.107 26.6871 163.504 25.4648 159.203 25.4648V27.4648ZM168.592 30.6916C170.898 32.7479 172.16 36.1307 172.16 41.0898H174.16C174.16 35.8302 172.821 31.7833 169.923 29.199L168.592 30.6916ZM172.16 41.0898V67H174.16V41.0898H172.16ZM173.16 66H159.414V68H173.16V66ZM160.414 67V45.2734H158.414V67H160.414ZM160.414 45.2734C160.414 42.5594 160.023 40.3573 159.119 38.7958L157.388 39.7979C158.031 40.9083 158.414 42.6906 158.414 45.2734H160.414ZM159.129 38.8138C158.186 37.1029 156.611 36.2578 154.598 36.2578V38.2578C155.96 38.2578 156.822 38.7721 157.378 39.78L159.129 38.8138ZM154.598 36.2578C153.162 36.2578 151.883 36.5523 150.816 37.2042C149.74 37.8612 148.952 38.8372 148.437 40.0717L150.282 40.8424C150.657 39.9441 151.188 39.3204 151.858 38.911C152.537 38.4965 153.431 38.2578 154.598 38.2578V36.2578ZM148.438 40.0681C147.471 42.3592 147.023 45.5513 147.023 49.5625H149.023C149.023 45.6518 149.467 42.7736 150.281 40.846L148.438 40.0681ZM147.023 49.5625V67H149.023V49.5625H147.023ZM148.023 66H134.277V68H148.023V66ZM135.277 67V27.168H133.277V67H135.277ZM134.277 28.168H144.648V26.168H134.277V28.168ZM143.706 27.5011L145.569 32.7746L147.455 32.1083L145.591 26.8348L143.706 27.5011ZM146.512 33.4414H147.039V31.4414H146.512V33.4414ZM147.871 32.9961C148.655 31.8199 149.587 30.8243 150.668 30.0032L149.457 28.4109C148.194 29.371 147.11 30.5317 146.207 31.8867L147.871 32.9961ZM150.668 30.0032C151.739 29.1893 152.979 28.5608 154.4 28.1237L153.811 26.2122C152.185 26.7126 150.73 27.4435 149.457 28.4109L150.668 30.0032ZM154.4 28.1237C155.813 27.6889 157.411 27.4648 159.203 27.4648V25.4648C157.246 25.4648 155.445 25.7095 153.811 26.2122L154.4 28.1237ZM233.523 59.3359L234.394 59.8285L234.396 59.825L233.523 59.3359ZM226.949 65.3828L226.488 64.4955L226.485 64.497L226.949 65.3828ZM209.301 67.3867L209.182 68.3796L209.183 68.3798L209.301 67.3867ZM204.379 66.3672L204.071 67.3189L204.085 67.323L204.379 66.3672ZM199.633 64.4688H198.633V65.1029L199.206 65.3733L199.633 64.4688ZM199.633 52.0938L200.083 51.2008L198.633 50.4696V52.0938H199.633ZM208.07 55.3281L207.815 56.2949L207.822 56.2968L208.07 55.3281ZM219.145 55.9258L218.799 54.9874L218.791 54.9905L219.145 55.9258ZM221.113 54.5898L221.913 55.1898L221.919 55.1821L221.925 55.1741L221.113 54.5898ZM220.797 50.3359L220.077 51.0296L220.09 51.0432L220.103 51.0563L220.797 50.3359ZM212.465 45.8359L212.04 46.7413L212.052 46.747L212.465 45.8359ZM207.297 43.0938L206.773 43.9454L206.779 43.9489L207.297 43.0938ZM203.359 39.8945L202.61 40.5571L202.617 40.5647L202.624 40.5722L203.359 39.8945ZM202.41 21.6133L201.602 21.0241L201.601 21.0256L202.41 21.6133ZM209.23 16.5508L208.872 15.6172L208.869 15.6182L209.23 16.5508ZM228.391 15.9883L228.12 16.9511L228.123 16.9517L228.391 15.9883ZM235.633 18.5547L236.562 18.9234L236.915 18.0354L236.044 17.643L235.633 18.5547ZM231.379 29.2773L230.963 30.1867L231.92 30.6246L232.308 29.6461L231.379 29.2773ZM224.875 26.8867L224.6 27.8483L224.61 27.851L224.875 26.8867ZM215.98 26.4297L216.332 27.366L216.339 27.3631L216.347 27.3601L215.98 26.4297ZM214.293 27.5898L213.498 26.9838L213.488 26.9961L213.479 27.0086L214.293 27.5898ZM214.68 31.4219L213.959 32.1155L213.966 32.1223L213.973 32.129L214.68 31.4219ZM217.809 33.4961L217.35 34.3847L217.358 34.3891L217.367 34.3934L217.809 33.4961ZM223.82 36.3438L223.4 37.2513L223.411 37.2561L223.82 36.3438ZM230.219 40L229.62 40.8013L229.627 40.8064L230.219 40ZM234.227 44.6758L233.332 45.123L233.336 45.1299L233.339 45.1368L234.227 44.6758ZM234.633 51.3906C234.633 54.003 233.976 56.4836 232.651 58.8468L234.396 59.825C235.883 57.1726 236.633 54.3564 236.633 51.3906H234.633ZM232.653 58.8433C231.358 61.1316 229.324 63.0219 226.488 64.4955L227.41 66.2701C230.528 64.65 232.876 62.509 234.394 59.8285L232.653 58.8433ZM226.485 64.497C223.721 65.9447 220.076 66.7031 215.488 66.7031V68.7031C220.276 68.7031 224.271 67.9147 227.413 66.2686L226.485 64.497ZM215.488 66.7031C213.173 66.7031 211.151 66.5988 209.418 66.3937L209.183 68.3798C211.013 68.5965 213.116 68.7031 215.488 68.7031V66.7031ZM209.42 66.3938C207.715 66.1893 206.133 65.8608 204.673 65.4114L204.085 67.323C205.671 67.8111 207.371 68.1623 209.182 68.3796L209.42 66.3938ZM204.686 65.4156C203.208 64.9381 201.666 64.3218 200.059 63.5642L199.206 65.3733C200.881 66.1626 202.502 66.8119 204.071 67.3188L204.686 65.4156ZM200.633 64.4688V52.0938H198.633V64.4688H200.633ZM199.183 52.9867C202.03 54.4222 204.907 55.526 207.815 56.2949L208.326 54.3614C205.561 53.6303 202.814 52.5778 200.083 51.2008L199.183 52.9867ZM207.822 56.2968C210.718 57.0388 213.37 57.418 215.77 57.418V55.418C213.576 55.418 211.094 55.0706 208.318 54.3594L207.822 56.2968ZM215.77 57.418C217.22 57.418 218.477 57.2476 219.498 56.8611L218.791 54.9905C218.078 55.2602 217.085 55.418 215.77 55.418V57.418ZM219.49 56.8641C220.5 56.492 221.342 55.9518 221.913 55.1898L220.313 53.9898C220.041 54.3529 219.57 54.7033 218.799 54.9874L219.49 56.8641ZM221.925 55.1741C222.474 54.4111 222.746 53.537 222.746 52.5859H220.746C220.746 53.1349 220.596 53.5967 220.302 54.0055L221.925 55.1741ZM222.746 52.5859C222.746 51.4278 222.322 50.4164 221.491 49.6156L220.103 51.0563C220.537 51.4742 220.746 51.9628 220.746 52.5859H222.746ZM221.517 49.6423C220.792 48.8887 219.689 48.1718 218.291 47.4728L217.397 49.2616C218.717 49.9219 219.583 50.5175 220.077 51.0296L221.517 49.6423ZM218.291 47.4728C216.915 46.7849 215.109 45.9353 212.877 44.9249L212.052 46.747C214.273 47.7522 216.053 48.5901 217.397 49.2616L218.291 47.4728ZM212.89 44.9306C211.018 44.0527 209.327 43.1551 207.815 42.2386L206.779 43.9489C208.36 44.9074 210.115 45.8379 212.04 46.7413L212.89 44.9306ZM207.821 42.2421C206.368 41.3479 205.128 40.3384 204.095 39.2169L202.624 40.5722C203.794 41.8413 205.179 42.9646 206.773 43.9454L207.821 42.2421ZM204.108 39.232C203.118 38.1128 202.349 36.8056 201.803 35.3L199.923 35.9813C200.549 37.71 201.444 39.2387 202.61 40.5571L204.108 39.232ZM201.803 35.3C201.266 33.8178 200.984 32.0282 200.984 29.9102H198.984C198.984 32.1984 199.288 34.2291 199.923 35.9813L201.803 35.3ZM200.984 29.9102C200.984 26.7732 201.749 24.2246 203.219 22.2009L201.601 21.0256C199.836 23.4551 198.984 26.4378 198.984 29.9102H200.984ZM203.218 22.2025C204.733 20.1254 206.842 18.5476 209.591 17.4833L208.869 15.6182C205.806 16.8039 203.369 18.6011 201.602 21.0241L203.218 22.2025ZM209.589 17.4843C212.382 16.4117 215.632 15.8633 219.355 15.8633V13.8633C215.438 13.8633 211.938 14.4399 208.872 15.6172L209.589 17.4843ZM219.355 15.8633C222.634 15.8633 225.552 16.2303 228.12 16.9511L228.661 15.0255C225.885 14.2463 222.78 13.8633 219.355 13.8633V15.8633ZM228.123 16.9517C230.778 17.6906 233.143 18.5299 235.222 19.4664L236.044 17.643C233.857 16.6576 231.394 15.7859 228.659 15.0249L228.123 16.9517ZM234.703 18.1859L230.449 28.9086L232.308 29.6461L236.562 18.9234L234.703 18.1859ZM231.795 28.368C229.548 27.3399 227.329 26.5239 225.14 25.9224L224.61 27.851C226.687 28.4214 228.804 29.1991 230.963 30.1867L231.795 28.368ZM225.15 25.9252C222.946 25.2955 220.872 24.9727 218.934 24.9727V26.9727C220.652 26.9727 222.538 27.2592 224.6 27.8482L225.15 25.9252ZM218.934 24.9727C217.663 24.9727 216.543 25.1332 215.614 25.4993L216.347 27.3601C216.965 27.1168 217.813 26.9727 218.934 26.9727V24.9727ZM215.629 25.4934C214.754 25.8215 214.016 26.3037 213.498 26.9838L215.088 28.1959C215.32 27.8916 215.707 27.6003 216.332 27.366L215.629 25.4934ZM213.479 27.0086C213.001 27.6785 212.766 28.4464 212.766 29.2773H214.766C214.766 28.8427 214.882 28.4855 215.107 28.1711L213.479 27.0086ZM212.766 29.2773C212.766 30.3605 213.191 31.3172 213.959 32.1155L215.4 30.7282C214.95 30.2609 214.766 29.788 214.766 29.2773H212.766ZM213.973 32.129C214.715 32.8718 215.868 33.6197 217.35 34.3847L218.267 32.6075C216.843 31.8725 215.91 31.2375 215.387 30.7148L213.973 32.129ZM217.367 34.3934C218.854 35.125 220.866 36.078 223.4 37.2512L224.24 35.4363C221.712 34.2658 219.716 33.3203 218.25 32.5988L217.367 34.3934ZM223.411 37.2561C225.868 38.3583 227.934 39.542 229.62 40.8013L230.817 39.1987C228.988 37.833 226.788 36.5792 224.23 35.4314L223.411 37.2561ZM229.627 40.8064C231.266 42.0079 232.494 43.4464 233.332 45.123L235.121 44.2286C234.131 42.2489 232.687 40.5702 230.81 39.1936L229.627 40.8064ZM233.339 45.1368C234.183 46.7615 234.633 48.8307 234.633 51.3906H236.633C236.633 48.6068 236.145 46.1995 235.114 44.2148L233.339 45.1368ZM301.797 29.9453L301.1 30.6629L301.104 30.6663L301.797 29.9453ZM305.418 67V68H306.418V67H305.418ZM291.672 67H290.672V68H291.672V67ZM290.441 39.0508L289.609 39.6055L289.616 39.6149L289.622 39.6242L290.441 39.0508ZM282.215 40.1758L281.301 39.7686L281.297 39.7779L282.215 40.1758ZM280.949 67V68H281.949V67H280.949ZM267.168 67H266.168V68H267.168V67ZM266.641 40.7031L265.676 40.9678L265.679 40.9792L265.683 40.9905L266.641 40.7031ZM265.129 38.1016L264.491 38.872L264.499 38.8786L264.508 38.8851L265.129 38.1016ZM258.871 38.6992L258.138 38.0195L258.137 38.0202L258.871 38.6992ZM256.516 67V68H257.516V67H256.516ZM242.77 67H241.77V68H242.77V67ZM242.77 27.168V26.168H241.77V27.168H242.77ZM253.141 27.168L254.067 26.7909L253.813 26.168H253.141V27.168ZM255.145 32.0898L254.218 32.4669L254.472 33.0898H255.145V32.0898ZM255.531 32.0898V33.0898H256.073L256.369 32.6361L255.531 32.0898ZM258.238 29.207L257.638 28.407L257.63 28.4132L258.238 29.207ZM262.211 27.2031L261.908 26.2502L261.904 26.2516L262.211 27.2031ZM279.367 32.0195L278.544 32.587L278.842 33.0195H279.367V32.0195ZM279.789 32.0195V33.0195H280.305L280.604 32.5987L279.789 32.0195ZM291.391 27.4648C295.774 27.4648 298.956 28.5814 301.1 30.6629L302.493 29.2277C299.857 26.6686 296.101 25.4648 291.391 25.4648V27.4648ZM301.104 30.6663C303.239 32.7186 304.418 36.1113 304.418 41.0898H306.418C306.418 35.8497 305.183 31.8127 302.49 29.2243L301.104 30.6663ZM304.418 41.0898V67H306.418V41.0898H304.418ZM305.418 66H291.672V68H305.418V66ZM292.672 67V45.3438H290.672V67H292.672ZM292.672 45.3438C292.672 42.2997 292.272 39.9227 291.261 38.4773L289.622 39.6242C290.251 40.5226 290.672 42.3409 290.672 45.3438H292.672ZM291.273 38.4961C290.268 36.9886 288.741 36.2578 286.855 36.2578V38.2578C288.158 38.2578 289.021 38.7224 289.609 39.6055L291.273 38.4961ZM286.855 36.2578C285.595 36.2578 284.458 36.5342 283.493 37.1408C282.526 37.7491 281.802 38.6457 281.301 39.7686L283.128 40.5829C283.495 39.7606 283.978 39.1981 284.558 38.8339C285.14 38.4677 285.889 38.2578 286.855 38.2578V36.2578ZM281.297 39.7779C280.374 41.9061 279.949 44.8188 279.949 48.4375H281.949C281.949 44.9312 282.368 42.3361 283.132 40.5737L281.297 39.7779ZM279.949 48.4375V67H281.949V48.4375H279.949ZM280.949 66H267.168V68H280.949V66ZM268.168 67V45.3438H266.168V67H268.168ZM268.168 45.3438C268.168 43.3733 267.989 41.7182 267.598 40.4158L265.683 40.9905C265.995 42.0318 266.168 43.4704 266.168 45.3438H268.168ZM267.605 40.4384C267.244 39.123 266.654 38.035 265.75 37.3181L264.508 38.8851C264.963 39.2462 265.381 39.8926 265.676 40.9678L267.605 40.4384ZM265.766 37.3312C264.878 36.5959 263.785 36.2578 262.562 36.2578V38.2578C263.402 38.2578 264.02 38.4822 264.491 38.872L265.766 37.3312ZM262.562 36.2578C260.774 36.2578 259.255 36.8142 258.138 38.0195L259.605 39.379C260.269 38.6624 261.211 38.2578 262.562 38.2578V36.2578ZM258.137 38.0202C257.098 39.1438 256.433 40.7264 256.061 42.6588L258.025 43.0365C258.356 41.3126 258.91 40.1297 259.605 39.3783L258.137 38.0202ZM256.061 42.6588C255.694 44.5691 255.516 46.8749 255.516 49.5625H257.516C257.516 46.9532 257.689 44.7824 258.025 43.0365L256.061 42.6588ZM255.516 49.5625V67H257.516V49.5625H255.516ZM256.516 66H242.77V68H256.516V66ZM243.77 67V27.168H241.77V67H243.77ZM242.77 28.168H253.141V26.168H242.77V28.168ZM252.214 27.5451L254.218 32.4669L256.071 31.7128L254.067 26.7909L252.214 27.5451ZM255.145 33.0898H255.531V31.0898H255.145V33.0898ZM256.369 32.6361C257.005 31.6601 257.828 30.7811 258.846 30.0009L257.63 28.4132C256.446 29.3204 255.463 30.3634 254.694 31.5436L256.369 32.6361ZM258.838 30.007C259.863 29.2381 261.086 28.6175 262.518 28.1547L261.904 26.2516C260.289 26.7731 258.863 27.4884 257.638 28.407L258.838 30.007ZM262.514 28.1561C263.945 27.7009 265.597 27.4648 267.484 27.4648V25.4648C265.434 25.4648 263.571 25.721 261.908 26.2502L262.514 28.1561ZM267.484 27.4648C270.31 27.4648 272.553 27.9407 274.266 28.8292L275.187 27.0537C273.103 25.9734 270.518 25.4648 267.484 25.4648V27.4648ZM274.266 28.8292C276.022 29.7393 277.443 30.9896 278.544 32.587L280.191 31.4521C278.901 29.5807 277.228 28.1122 275.187 27.0537L274.266 28.8292ZM279.367 33.0195H279.789V31.0195H279.367V33.0195ZM280.604 32.5987C281.771 30.9568 283.268 29.6955 285.11 28.8069L284.241 27.0056C282.099 28.0389 280.338 29.5198 278.974 31.4403L280.604 32.5987ZM285.11 28.8069C286.951 27.919 289.038 27.4648 291.391 27.4648V25.4648C288.774 25.4648 286.385 25.9716 284.241 27.0056L285.11 28.8069ZM328.586 27.168H329.586V26.168H328.586V27.168ZM328.586 67V68H329.586V67H328.586ZM314.84 67H313.84V68H314.84V67ZM314.84 27.168V26.168H313.84V27.168H314.84ZM326.898 12.3672L326.407 13.238L326.413 13.2413L326.898 12.3672ZM326.898 22.0703L327.39 22.9411L327.395 22.9386L326.898 22.0703ZM316.598 22.0703L316.083 22.9278L316.092 22.9328L316.1 22.9377L316.598 22.0703ZM316.598 12.3672L316.1 11.4998L316.094 11.5034L316.598 12.3672ZM327.586 27.168V67H329.586V27.168H327.586ZM328.586 66H314.84V68H328.586V66ZM315.84 67V27.168H313.84V67H315.84ZM314.84 28.168H328.586V26.168H314.84V28.168ZM321.766 12.1367C323.593 12.1367 325.129 12.5165 326.407 13.238L327.39 11.4964C325.762 10.5773 323.876 10.1367 321.766 10.1367V12.1367ZM326.413 13.2413C327.441 13.8128 328.113 15.0006 328.113 17.2539H330.113C330.113 14.6322 329.309 12.5622 327.384 11.493L326.413 13.2413ZM328.113 17.2539C328.113 19.4201 327.451 20.6028 326.402 21.2021L327.395 22.9386C329.299 21.8503 330.113 19.8221 330.113 17.2539H328.113ZM326.407 21.1995C325.129 21.921 323.593 22.3008 321.766 22.3008V24.3008C323.876 24.3008 325.762 23.8602 327.39 22.9411L326.407 21.1995ZM321.766 22.3008C319.886 22.3008 318.343 21.9189 317.095 21.2029L316.1 22.9377C317.712 23.8623 319.614 24.3008 321.766 24.3008V22.3008ZM317.112 21.2128C316.129 20.6231 315.488 19.4406 315.488 17.2539H313.488C313.488 19.8016 314.254 21.83 316.083 22.9278L317.112 21.2128ZM315.488 17.2539C315.488 14.98 316.138 13.7928 317.102 13.231L316.094 11.5034C314.244 12.5822 313.488 14.6528 313.488 17.2539H315.488ZM317.095 13.2346C318.343 12.5186 319.886 12.1367 321.766 12.1367V10.1367C319.614 10.1367 317.712 10.5752 316.1 11.4998L317.095 13.2346ZM364.34 55.4688H365.34V54.0537L364.006 54.5261L364.34 55.4688ZM364.34 65.4883L364.741 66.4044L365.34 66.1423V65.4883H364.34ZM359.559 67.0703L359.329 66.0971L359.321 66.099L359.313 66.101L359.559 67.0703ZM346.34 66.5078L345.955 67.4309L345.965 67.4348L346.34 66.5078ZM341.734 62.2891L340.853 62.7608L340.859 62.773L341.734 62.2891ZM340.117 37.4688H341.117V36.4688H340.117V37.4688ZM335.301 37.4688H334.301V38.4688H335.301V37.4688ZM335.301 31.8789L334.724 31.0623L334.301 31.3612V31.8789H335.301ZM341.418 27.5547L341.995 28.3713L342.227 28.2071L342.339 27.9453L341.418 27.5547ZM344.969 19.1875V18.1875H344.307L344.048 18.7969L344.969 19.1875ZM353.969 19.1875H354.969V18.1875H353.969V19.1875ZM353.969 27.168H352.969V28.168H353.969V27.168ZM363.742 27.168H364.742V26.168H363.742V27.168ZM363.742 37.4688V38.4688H364.742V37.4688H363.742ZM353.969 37.4688V36.4688H352.969V37.4688H353.969ZM354.953 55.8906L354.246 56.5977L354.252 56.6042L354.259 56.6105L354.953 55.8906ZM357.695 57.8398C359.006 57.8398 360.225 57.7039 361.348 57.4233L360.863 55.483C359.923 55.718 358.869 55.8398 357.695 55.8398V57.8398ZM361.348 57.4233C362.414 57.1569 363.522 56.8192 364.674 56.4114L364.006 54.5261C362.907 54.9152 361.86 55.2338 360.863 55.483L361.348 57.4233ZM363.34 55.4688V65.4883H365.34V55.4688H363.34ZM363.939 64.5721C362.497 65.2029 360.961 65.7117 359.329 66.0971L359.788 68.0436C361.531 67.6321 363.182 67.0862 364.741 66.4044L363.939 64.5721ZM359.313 66.101C357.759 66.4949 355.717 66.7031 353.16 66.7031V68.7031C355.807 68.7031 358.03 68.4895 359.804 68.0396L359.313 66.101ZM353.16 66.7031C350.684 66.7031 348.542 66.3204 346.715 65.5809L345.965 67.4348C348.075 68.289 350.48 68.7031 353.16 68.7031V66.7031ZM346.724 65.5847C344.979 64.8573 343.61 63.6141 342.61 61.8052L340.859 62.773C342.062 64.9484 343.764 66.5177 345.955 67.4309L346.724 65.5847ZM342.616 61.8174C341.648 60.0066 341.117 57.3927 341.117 53.8867H339.117C339.117 57.5526 339.665 60.5403 340.853 62.7607L342.616 61.8174ZM341.117 53.8867V37.4688H339.117V53.8867H341.117ZM340.117 36.4688H335.301V38.4688H340.117V36.4688ZM336.301 37.4688V31.8789H334.301V37.4688H336.301ZM335.878 32.6955L341.995 28.3713L340.841 26.7381L334.724 31.0623L335.878 32.6955ZM342.339 27.9453L345.889 19.5781L344.048 18.7969L340.497 27.164L342.339 27.9453ZM344.969 20.1875H353.969V18.1875H344.969V20.1875ZM352.969 19.1875V27.168H354.969V19.1875H352.969ZM353.969 28.168H363.742V26.168H353.969V28.168ZM362.742 27.168V37.4688H364.742V27.168H362.742ZM363.742 36.4688H353.969V38.4688H363.742V36.4688ZM352.969 37.4688V52.9727H354.969V37.4688H352.969ZM352.969 52.9727C352.969 54.4219 353.339 55.6909 354.246 56.5977L355.66 55.1835C355.255 54.7779 354.969 54.1015 354.969 52.9727H352.969ZM354.259 56.6105C355.15 57.4701 356.341 57.8398 357.695 57.8398V55.8398C356.705 55.8398 356.068 55.5768 355.647 55.1708L354.259 56.6105ZM385.047 12.2969H386.047V11.2969H385.047V12.2969ZM384.836 27.5195L383.838 27.4499L383.838 27.4608L384.836 27.5195ZM384.484 32.0898L383.49 31.9794L383.367 33.0898H384.484V32.0898ZM385.117 32.0898V33.0898H385.67L385.964 32.6211L385.117 32.0898ZM391.727 27.0273L391.981 27.9944L391.989 27.9923L391.997 27.9901L391.727 27.0273ZM403.188 27.9766L402.756 28.8789L402.76 28.8807L403.188 27.9766ZM408.285 32.7227L407.423 33.2289L407.425 33.233L408.285 32.7227ZM410.184 67V68H411.184V67H410.184ZM396.367 67H395.367V68H396.367V67ZM395.207 39.2969L394.338 39.7914L394.342 39.7979L395.207 39.2969ZM387.684 38.6992L388.382 39.4151L388.391 39.4063L387.684 38.6992ZM385.645 42.8477L386.621 43.0632L386.622 43.0606L385.645 42.8477ZM385.047 67V68H386.047V67H385.047ZM371.301 67H370.301V68H371.301V67ZM371.301 12.2969V11.2969H370.301V12.2969H371.301ZM384.047 12.2969V20.0664H386.047V12.2969H384.047ZM384.047 20.0664C384.047 23.0058 383.977 25.4654 383.838 27.4499L385.834 27.5891C385.976 25.5425 386.047 23.0332 386.047 20.0664H384.047ZM383.838 27.4608C383.721 29.4479 383.605 30.9508 383.49 31.9794L385.478 32.2003C385.598 31.1195 385.717 29.5755 385.834 27.5783L383.838 27.4608ZM384.484 33.0898H385.117V31.0898H384.484V33.0898ZM385.964 32.6211C386.778 31.3239 387.682 30.321 388.668 29.5872L387.473 27.9831C386.255 28.8899 385.191 30.0901 384.27 31.5586L385.964 32.6211ZM388.668 29.5872C389.666 28.8438 390.768 28.3136 391.981 27.9944L391.472 26.0603C390.013 26.4442 388.678 27.0859 387.473 27.9831L388.668 29.5872ZM391.997 27.9901C393.234 27.6428 394.595 27.4648 396.086 27.4648V25.4648C394.436 25.4648 392.891 25.6619 391.456 26.0646L391.997 27.9901ZM396.086 27.4648C398.58 27.4648 400.797 27.9429 402.756 28.8789L403.619 27.0743C401.359 25.9946 398.842 25.4648 396.086 25.4648V27.4648ZM402.76 28.8807C404.7 29.7974 406.252 31.235 407.423 33.2289L409.148 32.2165C407.787 29.8978 405.94 28.1714 403.615 27.0724L402.76 28.8807ZM407.425 33.233C408.57 35.1626 409.184 37.7574 409.184 41.0898H411.184C411.184 37.5317 410.531 34.5484 409.145 32.2123L407.425 33.233ZM409.184 41.0898V67H411.184V41.0898H409.184ZM410.184 66H396.367V68H410.184V66ZM397.367 67V45.2734H395.367V67H397.367ZM397.367 45.2734C397.367 42.5594 396.976 40.3573 396.072 38.7958L394.342 39.7979C394.984 40.9083 395.367 42.6906 395.367 45.2734H397.367ZM396.076 38.8024C395.118 37.1176 393.583 36.2578 391.621 36.2578V38.2578C392.894 38.2578 393.75 38.7574 394.338 39.7914L396.076 38.8024ZM391.621 36.2578C389.755 36.2578 388.165 36.8032 386.976 37.9921L388.391 39.4063C389.124 38.6734 390.159 38.2578 391.621 38.2578V36.2578ZM386.985 37.9834C385.839 39.1016 385.092 40.6879 384.667 42.6347L386.622 43.0606C386.994 41.3512 387.606 40.1718 388.382 39.415L386.985 37.9834ZM384.668 42.6321C384.249 44.5302 384.047 46.8223 384.047 49.4922H386.047C386.047 46.9121 386.243 44.7745 386.621 43.0632L384.668 42.6321ZM384.047 49.4922V67H386.047V49.4922H384.047ZM385.047 66H371.301V68H385.047V66ZM372.301 67V12.2969H370.301V67H372.301ZM371.301 13.2969H385.047V11.2969H371.301V13.2969Z" fill="black"/>
</g>
<path d="M12.4141 117V99.8672H13.6211V117H12.4141ZM29.0078 117.234C27.2656 117.234 25.9375 116.688 25.0234 115.594C24.1172 114.492 23.6641 112.891 23.6641 110.789C23.6641 108.586 24.1445 106.906 25.1055 105.75C26.0664 104.594 27.4062 104.016 29.125 104.016C29.8594 104.016 30.4961 104.129 31.0352 104.355C31.582 104.582 32.0391 104.891 32.4062 105.281C32.7812 105.664 33.0703 106.102 33.2734 106.594H33.3672C33.3359 106.18 33.3125 105.734 33.2969 105.258C33.2812 104.781 33.2734 104.344 33.2734 103.945V98.7656H34.457V117H33.4961L33.3438 114.668H33.2734C33.0625 115.137 32.7695 115.566 32.3945 115.957C32.0273 116.348 31.5664 116.66 31.0117 116.895C30.457 117.121 29.7891 117.234 29.0078 117.234ZM29.1367 116.203C30.6367 116.203 31.7031 115.738 32.3359 114.809C32.9688 113.871 33.2852 112.535 33.2852 110.801V110.613C33.2852 108.816 32.9688 107.441 32.3359 106.488C31.7031 105.527 30.6719 105.047 29.2422 105.047C27.8281 105.047 26.7461 105.539 25.9961 106.523C25.2539 107.508 24.8828 108.938 24.8828 110.812C24.8828 112.578 25.2305 113.918 25.9258 114.832C26.6289 115.746 27.6992 116.203 29.1367 116.203ZM43.5156 104.016C44.6016 104.016 45.5039 104.27 46.2227 104.777C46.9492 105.285 47.4883 105.98 47.8398 106.863C48.1992 107.746 48.3789 108.758 48.3789 109.898V110.754H39.1797C39.1797 112.504 39.582 113.848 40.3867 114.785C41.1992 115.723 42.3594 116.191 43.8672 116.191C44.6562 116.191 45.3398 116.129 45.918 116.004C46.5039 115.871 47.1523 115.648 47.8633 115.336V116.426C47.2383 116.707 46.6133 116.91 45.9883 117.035C45.3633 117.168 44.6445 117.234 43.832 117.234C42.543 117.234 41.4609 116.969 40.5859 116.438C39.7188 115.898 39.0625 115.141 38.6172 114.164C38.1797 113.188 37.9609 112.047 37.9609 110.742C37.9609 109.469 38.1719 108.324 38.5938 107.309C39.0234 106.293 39.6484 105.492 40.4688 104.906C41.2969 104.312 42.3125 104.016 43.5156 104.016ZM43.5039 105.035C42.2852 105.035 41.2969 105.441 40.5391 106.254C39.7891 107.059 39.3477 108.223 39.2148 109.746H47.1484C47.1484 108.816 47.0156 107.996 46.75 107.285C46.4844 106.574 46.082 106.023 45.543 105.633C45.0117 105.234 44.332 105.035 43.5039 105.035ZM59.8516 113.66C59.8516 114.418 59.6602 115.066 59.2773 115.605C58.9023 116.137 58.3516 116.543 57.625 116.824C56.8984 117.098 56.0039 117.234 54.9414 117.234C54.0586 117.234 53.2695 117.156 52.5742 117C51.8789 116.844 51.2969 116.652 50.8281 116.426V115.254C51.4141 115.543 52.0625 115.777 52.7734 115.957C53.4844 116.137 54.2148 116.227 54.9648 116.227C56.2773 116.227 57.2227 116.004 57.8008 115.559C58.3789 115.113 58.668 114.504 58.668 113.73C58.668 113.223 58.5234 112.805 58.2344 112.477C57.9531 112.141 57.5469 111.852 57.0156 111.609C56.4844 111.367 55.8438 111.121 55.0938 110.871C54.3125 110.605 53.6172 110.344 53.0078 110.086C52.4062 109.82 51.9336 109.473 51.5898 109.043C51.2461 108.605 51.0742 108.012 51.0742 107.262C51.0742 106.238 51.4844 105.441 52.3047 104.871C53.125 104.301 54.2266 104.016 55.6094 104.016C56.375 104.016 57.0859 104.09 57.7422 104.238C58.4062 104.379 59.0078 104.562 59.5469 104.789L59.125 105.797C58.6406 105.57 58.082 105.387 57.4492 105.246C56.8164 105.105 56.1836 105.035 55.5508 105.035C54.5117 105.035 53.6992 105.219 53.1133 105.586C52.5273 105.953 52.2344 106.492 52.2344 107.203C52.2344 107.75 52.375 108.18 52.6562 108.492C52.9375 108.797 53.3398 109.055 53.8633 109.266C54.3867 109.469 55.0078 109.695 55.7266 109.945C56.4688 110.203 57.1523 110.473 57.7773 110.754C58.4102 111.035 58.9141 111.398 59.2891 111.844C59.6641 112.289 59.8516 112.895 59.8516 113.66ZM64.2461 104.262V117H63.0625V104.262H64.2461ZM63.6719 99.5508C63.9688 99.5508 64.1875 99.6406 64.3281 99.8203C64.4688 99.9922 64.5391 100.227 64.5391 100.523C64.5391 100.82 64.4688 101.055 64.3281 101.227C64.1875 101.398 63.9688 101.484 63.6719 101.484C63.3906 101.484 63.1797 101.398 63.0391 101.227C62.8984 101.055 62.8281 100.82 62.8281 100.523C62.8281 100.227 62.8984 99.9922 63.0391 99.8203C63.1797 99.6406 63.3906 99.5508 63.6719 99.5508ZM71.875 122.766C70.2734 122.766 69.0273 122.457 68.1367 121.84C67.2539 121.223 66.8125 120.359 66.8125 119.25C66.8125 118.391 67.082 117.648 67.6211 117.023C68.1602 116.406 68.8906 116.035 69.8125 115.91C69.4453 115.738 69.1445 115.504 68.9102 115.207C68.6836 114.91 68.5703 114.566 68.5703 114.176C68.5703 113.738 68.707 113.332 68.9805 112.957C69.2539 112.574 69.6641 112.223 70.2109 111.902C69.4766 111.637 68.8984 111.188 68.4766 110.555C68.0547 109.914 67.8438 109.145 67.8438 108.246C67.8438 107.387 68.0273 106.641 68.3945 106.008C68.7617 105.375 69.2812 104.887 69.9531 104.543C70.6328 104.191 71.4336 104.016 72.3555 104.016C72.6367 104.016 72.8906 104.023 73.1172 104.039C73.3516 104.055 73.5664 104.082 73.7617 104.121C73.957 104.152 74.1328 104.195 74.2891 104.25H78.4023V105.094L75.7773 105.27C76.1211 105.684 76.3789 106.133 76.5508 106.617C76.7227 107.094 76.8086 107.598 76.8086 108.129C76.8086 109.395 76.4102 110.398 75.6133 111.141C74.8164 111.883 73.707 112.254 72.2852 112.254C71.8945 112.254 71.5117 112.219 71.1367 112.148C70.6602 112.43 70.2969 112.715 70.0469 113.004C69.7969 113.285 69.6719 113.637 69.6719 114.059C69.6719 114.324 69.75 114.543 69.9062 114.715C70.0625 114.879 70.2891 115.008 70.5859 115.102C70.8828 115.188 71.2461 115.23 71.6758 115.23H73.9141C75.2969 115.23 76.3555 115.512 77.0898 116.074C77.8242 116.637 78.1914 117.465 78.1914 118.559C78.1914 119.895 77.6406 120.93 76.5391 121.664C75.4453 122.398 73.8906 122.766 71.875 122.766ZM71.957 121.77C73.0742 121.77 74.0039 121.648 74.7461 121.406C75.4961 121.164 76.0586 120.805 76.4336 120.328C76.8086 119.859 76.9961 119.277 76.9961 118.582C76.9961 118.012 76.8594 117.57 76.5859 117.258C76.3125 116.945 75.9258 116.73 75.4258 116.613C74.9258 116.488 74.3359 116.426 73.6562 116.426H71.5234C70.8438 116.426 70.2383 116.52 69.707 116.707C69.1758 116.887 68.7617 117.176 68.4648 117.574C68.1758 117.973 68.0312 118.504 68.0312 119.168C68.0312 120.02 68.3633 120.664 69.0273 121.102C69.6992 121.547 70.6758 121.77 71.957 121.77ZM72.332 111.305C73.3867 111.305 74.1953 111.039 74.7578 110.508C75.3203 109.977 75.6016 109.207 75.6016 108.199C75.6016 107.121 75.3125 106.312 74.7344 105.773C74.1562 105.234 73.3477 104.965 72.3086 104.965C71.3008 104.965 70.5078 105.254 69.9297 105.832C69.3594 106.402 69.0742 107.207 69.0742 108.246C69.0742 109.215 69.3477 109.969 69.8945 110.508C70.4414 111.039 71.2539 111.305 72.332 111.305ZM86.582 104.016C88.0117 104.016 89.1094 104.391 89.875 105.141C90.6406 105.891 91.0234 107.066 91.0234 108.668V117H89.8516V108.738C89.8516 107.473 89.5625 106.543 88.9844 105.949C88.4062 105.355 87.5664 105.059 86.4648 105.059C85.0664 105.059 83.9961 105.469 83.2539 106.289C82.5195 107.102 82.1523 108.332 82.1523 109.98V117H80.9688V104.262H81.9297L82.1055 106.582H82.1758C82.4023 106.105 82.7109 105.676 83.1016 105.293C83.5 104.902 83.9883 104.594 84.5664 104.367C85.1445 104.133 85.8164 104.016 86.582 104.016ZM105.836 104.039C107.234 104.039 108.281 104.391 108.977 105.094C109.672 105.797 110.02 106.918 110.02 108.457V117H109.105L108.895 114.773H108.824C108.551 115.25 108.219 115.676 107.828 116.051C107.438 116.418 106.957 116.707 106.387 116.918C105.824 117.129 105.137 117.234 104.324 117.234C103.504 117.234 102.801 117.098 102.215 116.824C101.637 116.551 101.188 116.152 100.867 115.629C100.555 115.105 100.398 114.469 100.398 113.719C100.398 112.453 100.922 111.492 101.969 110.836C103.016 110.172 104.52 109.797 106.48 109.711L108.848 109.594V108.668C108.848 107.363 108.59 106.434 108.074 105.879C107.559 105.324 106.797 105.047 105.789 105.047C105.133 105.047 104.5 105.133 103.891 105.305C103.289 105.469 102.676 105.707 102.051 106.02L101.676 105.035C102.285 104.746 102.938 104.508 103.633 104.32C104.336 104.133 105.07 104.039 105.836 104.039ZM108.836 110.52L106.609 110.613C104.992 110.691 103.762 110.98 102.918 111.48C102.074 111.98 101.652 112.73 101.652 113.73C101.652 114.535 101.902 115.152 102.402 115.582C102.91 116.012 103.613 116.227 104.512 116.227C105.91 116.227 106.977 115.828 107.711 115.031C108.453 114.234 108.828 113.148 108.836 111.773V110.52ZM119.723 104.016C121.152 104.016 122.25 104.391 123.016 105.141C123.781 105.891 124.164 107.066 124.164 108.668V117H122.992V108.738C122.992 107.473 122.703 106.543 122.125 105.949C121.547 105.355 120.707 105.059 119.605 105.059C118.207 105.059 117.137 105.469 116.395 106.289C115.66 107.102 115.293 108.332 115.293 109.98V117H114.109V104.262H115.07L115.246 106.582H115.316C115.543 106.105 115.852 105.676 116.242 105.293C116.641 104.902 117.129 104.594 117.707 104.367C118.285 104.133 118.957 104.016 119.723 104.016ZM132.906 117.234C131.164 117.234 129.836 116.688 128.922 115.594C128.016 114.492 127.562 112.891 127.562 110.789C127.562 108.586 128.043 106.906 129.004 105.75C129.965 104.594 131.305 104.016 133.023 104.016C133.758 104.016 134.395 104.129 134.934 104.355C135.48 104.582 135.938 104.891 136.305 105.281C136.68 105.664 136.969 106.102 137.172 106.594H137.266C137.234 106.18 137.211 105.734 137.195 105.258C137.18 104.781 137.172 104.344 137.172 103.945V98.7656H138.355V117H137.395L137.242 114.668H137.172C136.961 115.137 136.668 115.566 136.293 115.957C135.926 116.348 135.465 116.66 134.91 116.895C134.355 117.121 133.688 117.234 132.906 117.234ZM133.035 116.203C134.535 116.203 135.602 115.738 136.234 114.809C136.867 113.871 137.184 112.535 137.184 110.801V110.613C137.184 108.816 136.867 107.441 136.234 106.488C135.602 105.527 134.57 105.047 133.141 105.047C131.727 105.047 130.645 105.539 129.895 106.523C129.152 107.508 128.781 108.938 128.781 110.812C128.781 112.578 129.129 113.918 129.824 114.832C130.527 115.746 131.598 116.203 133.035 116.203ZM149.992 98.7656V103.945C149.992 104.391 149.984 104.879 149.969 105.41C149.953 105.941 149.938 106.383 149.922 106.734H149.992C150.297 105.945 150.828 105.293 151.586 104.777C152.344 104.262 153.289 104.004 154.422 104.004C156.078 104.004 157.355 104.562 158.254 105.68C159.16 106.797 159.613 108.434 159.613 110.59C159.613 111.91 159.41 113.07 159.004 114.07C158.598 115.062 157.992 115.84 157.188 116.402C156.391 116.957 155.391 117.234 154.188 117.234C153.102 117.234 152.215 117.008 151.527 116.555C150.84 116.094 150.34 115.52 150.027 114.832H149.934L149.711 117H148.809V98.7656H149.992ZM154.293 105.035C153.285 105.035 152.465 105.254 151.832 105.691C151.199 106.121 150.734 106.75 150.438 107.578C150.141 108.406 149.992 109.418 149.992 110.613V110.801C149.992 112.559 150.312 113.898 150.953 114.82C151.594 115.742 152.633 116.203 154.07 116.203C155.492 116.203 156.566 115.719 157.293 114.75C158.027 113.773 158.395 112.387 158.395 110.59C158.395 108.754 158.055 107.371 157.375 106.441C156.695 105.504 155.668 105.035 154.293 105.035ZM173.02 104.262V117H172.059L171.883 114.703H171.812C171.594 115.172 171.285 115.598 170.887 115.98C170.488 116.363 170 116.668 169.422 116.895C168.844 117.121 168.172 117.234 167.406 117.234C166.43 117.234 165.609 117.066 164.945 116.73C164.289 116.387 163.793 115.871 163.457 115.184C163.121 114.496 162.953 113.637 162.953 112.605V104.262H164.137V112.488C164.137 113.762 164.422 114.699 164.992 115.301C165.57 115.902 166.414 116.203 167.523 116.203C168.461 116.203 169.246 116.023 169.879 115.664C170.52 115.305 171.004 114.762 171.332 114.035C171.668 113.301 171.836 112.387 171.836 111.293V104.262H173.02ZM178.48 104.262V117H177.297V104.262H178.48ZM177.906 99.5508C178.203 99.5508 178.422 99.6406 178.562 99.8203C178.703 99.9922 178.773 100.227 178.773 100.523C178.773 100.82 178.703 101.055 178.562 101.227C178.422 101.398 178.203 101.484 177.906 101.484C177.625 101.484 177.414 101.398 177.273 101.227C177.133 101.055 177.062 100.82 177.062 100.523C177.062 100.227 177.133 99.9922 177.273 99.8203C177.414 99.6406 177.625 99.5508 177.906 99.5508ZM183.941 117H182.746V98.7656H183.941V117ZM192.789 117.234C191.047 117.234 189.719 116.688 188.805 115.594C187.898 114.492 187.445 112.891 187.445 110.789C187.445 108.586 187.926 106.906 188.887 105.75C189.848 104.594 191.188 104.016 192.906 104.016C193.641 104.016 194.277 104.129 194.816 104.355C195.363 104.582 195.82 104.891 196.188 105.281C196.562 105.664 196.852 106.102 197.055 106.594H197.148C197.117 106.18 197.094 105.734 197.078 105.258C197.062 104.781 197.055 104.344 197.055 103.945V98.7656H198.238V117H197.277L197.125 114.668H197.055C196.844 115.137 196.551 115.566 196.176 115.957C195.809 116.348 195.348 116.66 194.793 116.895C194.238 117.121 193.57 117.234 192.789 117.234ZM192.918 116.203C194.418 116.203 195.484 115.738 196.117 114.809C196.75 113.871 197.066 112.535 197.066 110.801V110.613C197.066 108.816 196.75 107.441 196.117 106.488C195.484 105.527 194.453 105.047 193.023 105.047C191.609 105.047 190.527 105.539 189.777 106.523C189.035 107.508 188.664 108.938 188.664 110.812C188.664 112.578 189.012 113.918 189.707 114.832C190.41 115.746 191.48 116.203 192.918 116.203ZM212.148 116.215C212.516 116.215 212.855 116.188 213.168 116.133C213.488 116.078 213.77 116.008 214.012 115.922V116.906C213.762 116.992 213.469 117.066 213.133 117.129C212.797 117.199 212.426 117.234 212.02 117.234C211.301 117.234 210.703 117.102 210.227 116.836C209.75 116.562 209.391 116.152 209.148 115.605C208.906 115.051 208.785 114.348 208.785 113.496V105.246H206.887V104.543L208.773 104.18L209.184 101.18H209.969V104.262H213.941V105.246H209.969V113.426C209.969 114.34 210.137 115.035 210.473 115.512C210.816 115.98 211.375 116.215 212.148 116.215ZM217.926 98.7656V104.719C217.926 105.062 217.918 105.383 217.902 105.68C217.895 105.977 217.879 106.277 217.855 106.582H217.938C218.148 106.098 218.449 105.664 218.84 105.281C219.238 104.898 219.727 104.594 220.305 104.367C220.891 104.141 221.566 104.027 222.332 104.027C223.301 104.027 224.113 104.195 224.77 104.531C225.434 104.859 225.938 105.363 226.281 106.043C226.625 106.723 226.797 107.598 226.797 108.668V117H225.625V108.738C225.625 107.473 225.336 106.543 224.758 105.949C224.18 105.355 223.34 105.059 222.238 105.059C221.301 105.059 220.512 105.242 219.871 105.609C219.23 105.969 218.746 106.516 218.418 107.25C218.09 107.977 217.926 108.887 217.926 109.98V117H216.742V98.7656H217.926ZM232.105 104.262V117H230.922V104.262H232.105ZM231.531 99.5508C231.828 99.5508 232.047 99.6406 232.188 99.8203C232.328 99.9922 232.398 100.227 232.398 100.523C232.398 100.82 232.328 101.055 232.188 101.227C232.047 101.398 231.828 101.484 231.531 101.484C231.25 101.484 231.039 101.398 230.898 101.227C230.758 101.055 230.688 100.82 230.688 100.523C230.688 100.227 230.758 99.9922 230.898 99.8203C231.039 99.6406 231.25 99.5508 231.531 99.5508ZM241.973 104.016C243.402 104.016 244.5 104.391 245.266 105.141C246.031 105.891 246.414 107.066 246.414 108.668V117H245.242V108.738C245.242 107.473 244.953 106.543 244.375 105.949C243.797 105.355 242.957 105.059 241.855 105.059C240.457 105.059 239.387 105.469 238.645 106.289C237.91 107.102 237.543 108.332 237.543 109.98V117H236.359V104.262H237.32L237.496 106.582H237.566C237.793 106.105 238.102 105.676 238.492 105.293C238.891 104.902 239.379 104.594 239.957 104.367C240.535 104.133 241.207 104.016 241.973 104.016ZM253.914 122.766C252.312 122.766 251.066 122.457 250.176 121.84C249.293 121.223 248.852 120.359 248.852 119.25C248.852 118.391 249.121 117.648 249.66 117.023C250.199 116.406 250.93 116.035 251.852 115.91C251.484 115.738 251.184 115.504 250.949 115.207C250.723 114.91 250.609 114.566 250.609 114.176C250.609 113.738 250.746 113.332 251.02 112.957C251.293 112.574 251.703 112.223 252.25 111.902C251.516 111.637 250.938 111.188 250.516 110.555C250.094 109.914 249.883 109.145 249.883 108.246C249.883 107.387 250.066 106.641 250.434 106.008C250.801 105.375 251.32 104.887 251.992 104.543C252.672 104.191 253.473 104.016 254.395 104.016C254.676 104.016 254.93 104.023 255.156 104.039C255.391 104.055 255.605 104.082 255.801 104.121C255.996 104.152 256.172 104.195 256.328 104.25H260.441V105.094L257.816 105.27C258.16 105.684 258.418 106.133 258.59 106.617C258.762 107.094 258.848 107.598 258.848 108.129C258.848 109.395 258.449 110.398 257.652 111.141C256.855 111.883 255.746 112.254 254.324 112.254C253.934 112.254 253.551 112.219 253.176 112.148C252.699 112.43 252.336 112.715 252.086 113.004C251.836 113.285 251.711 113.637 251.711 114.059C251.711 114.324 251.789 114.543 251.945 114.715C252.102 114.879 252.328 115.008 252.625 115.102C252.922 115.188 253.285 115.23 253.715 115.23H255.953C257.336 115.23 258.395 115.512 259.129 116.074C259.863 116.637 260.23 117.465 260.23 118.559C260.23 119.895 259.68 120.93 258.578 121.664C257.484 122.398 255.93 122.766 253.914 122.766ZM253.996 121.77C255.113 121.77 256.043 121.648 256.785 121.406C257.535 121.164 258.098 120.805 258.473 120.328C258.848 119.859 259.035 119.277 259.035 118.582C259.035 118.012 258.898 117.57 258.625 117.258C258.352 116.945 257.965 116.73 257.465 116.613C256.965 116.488 256.375 116.426 255.695 116.426H253.562C252.883 116.426 252.277 116.52 251.746 116.707C251.215 116.887 250.801 117.176 250.504 117.574C250.215 117.973 250.07 118.504 250.07 119.168C250.07 120.02 250.402 120.664 251.066 121.102C251.738 121.547 252.715 121.77 253.996 121.77ZM254.371 111.305C255.426 111.305 256.234 111.039 256.797 110.508C257.359 109.977 257.641 109.207 257.641 108.199C257.641 107.121 257.352 106.312 256.773 105.773C256.195 105.234 255.387 104.965 254.348 104.965C253.34 104.965 252.547 105.254 251.969 105.832C251.398 106.402 251.113 107.207 251.113 108.246C251.113 109.215 251.387 109.969 251.934 110.508C252.48 111.039 253.293 111.305 254.371 111.305ZM270.977 113.66C270.977 114.418 270.785 115.066 270.402 115.605C270.027 116.137 269.477 116.543 268.75 116.824C268.023 117.098 267.129 117.234 266.066 117.234C265.184 117.234 264.395 117.156 263.699 117C263.004 116.844 262.422 116.652 261.953 116.426V115.254C262.539 115.543 263.188 115.777 263.898 115.957C264.609 116.137 265.34 116.227 266.09 116.227C267.402 116.227 268.348 116.004 268.926 115.559C269.504 115.113 269.793 114.504 269.793 113.73C269.793 113.223 269.648 112.805 269.359 112.477C269.078 112.141 268.672 111.852 268.141 111.609C267.609 111.367 266.969 111.121 266.219 110.871C265.438 110.605 264.742 110.344 264.133 110.086C263.531 109.82 263.059 109.473 262.715 109.043C262.371 108.605 262.199 108.012 262.199 107.262C262.199 106.238 262.609 105.441 263.43 104.871C264.25 104.301 265.352 104.016 266.734 104.016C267.5 104.016 268.211 104.09 268.867 104.238C269.531 104.379 270.133 104.562 270.672 104.789L270.25 105.797C269.766 105.57 269.207 105.387 268.574 105.246C267.941 105.105 267.309 105.035 266.676 105.035C265.637 105.035 264.824 105.219 264.238 105.586C263.652 105.953 263.359 106.492 263.359 107.203C263.359 107.75 263.5 108.18 263.781 108.492C264.062 108.797 264.465 109.055 264.988 109.266C265.512 109.469 266.133 109.695 266.852 109.945C267.594 110.203 268.277 110.473 268.902 110.754C269.535 111.035 270.039 111.398 270.414 111.844C270.789 112.289 270.977 112.895 270.977 113.66ZM290.992 110.613C290.992 111.598 290.871 112.496 290.629 113.309C290.387 114.113 290.027 114.809 289.551 115.395C289.074 115.98 288.48 116.434 287.77 116.754C287.066 117.074 286.246 117.234 285.309 117.234C284.418 117.234 283.625 117.078 282.93 116.766C282.234 116.445 281.645 115.992 281.16 115.406C280.684 114.82 280.32 114.125 280.07 113.32C279.82 112.508 279.695 111.605 279.695 110.613C279.695 109.246 279.922 108.07 280.375 107.086C280.836 106.094 281.492 105.336 282.344 104.812C283.203 104.281 284.23 104.016 285.426 104.016C286.66 104.016 287.688 104.297 288.508 104.859C289.336 105.414 289.957 106.188 290.371 107.18C290.785 108.172 290.992 109.316 290.992 110.613ZM280.914 110.613C280.914 111.73 281.074 112.707 281.395 113.543C281.715 114.379 282.199 115.031 282.848 115.5C283.504 115.969 284.332 116.203 285.332 116.203C286.355 116.203 287.195 115.969 287.852 115.5C288.508 115.031 288.992 114.375 289.305 113.531C289.617 112.688 289.773 111.715 289.773 110.613C289.773 109.543 289.625 108.59 289.328 107.754C289.031 106.918 288.562 106.262 287.922 105.785C287.281 105.301 286.445 105.059 285.414 105.059C283.938 105.059 282.816 105.551 282.051 106.535C281.293 107.52 280.914 108.879 280.914 110.613ZM300.121 104.016C301.551 104.016 302.648 104.391 303.414 105.141C304.18 105.891 304.562 107.066 304.562 108.668V117H303.391V108.738C303.391 107.473 303.102 106.543 302.523 105.949C301.945 105.355 301.105 105.059 300.004 105.059C298.605 105.059 297.535 105.469 296.793 106.289C296.059 107.102 295.691 108.332 295.691 109.98V117H294.508V104.262H295.469L295.645 106.582H295.715C295.941 106.105 296.25 105.676 296.641 105.293C297.039 104.902 297.527 104.594 298.105 104.367C298.684 104.133 299.355 104.016 300.121 104.016ZM318.367 116.215C318.734 116.215 319.074 116.188 319.387 116.133C319.707 116.078 319.988 116.008 320.23 115.922V116.906C319.98 116.992 319.688 117.066 319.352 117.129C319.016 117.199 318.645 117.234 318.238 117.234C317.52 117.234 316.922 117.102 316.445 116.836C315.969 116.562 315.609 116.152 315.367 115.605C315.125 115.051 315.004 114.348 315.004 113.496V105.246H313.105V104.543L314.992 104.18L315.402 101.18H316.188V104.262H320.16V105.246H316.188V113.426C316.188 114.34 316.355 115.035 316.691 115.512C317.035 115.98 317.594 116.215 318.367 116.215ZM324.145 98.7656V104.719C324.145 105.062 324.137 105.383 324.121 105.68C324.113 105.977 324.098 106.277 324.074 106.582H324.156C324.367 106.098 324.668 105.664 325.059 105.281C325.457 104.898 325.945 104.594 326.523 104.367C327.109 104.141 327.785 104.027 328.551 104.027C329.52 104.027 330.332 104.195 330.988 104.531C331.652 104.859 332.156 105.363 332.5 106.043C332.844 106.723 333.016 107.598 333.016 108.668V117H331.844V108.738C331.844 107.473 331.555 106.543 330.977 105.949C330.398 105.355 329.559 105.059 328.457 105.059C327.52 105.059 326.73 105.242 326.09 105.609C325.449 105.969 324.965 106.516 324.637 107.25C324.309 107.977 324.145 108.887 324.145 109.98V117H322.961V98.7656H324.145ZM341.969 104.016C343.055 104.016 343.957 104.27 344.676 104.777C345.402 105.285 345.941 105.98 346.293 106.863C346.652 107.746 346.832 108.758 346.832 109.898V110.754H337.633C337.633 112.504 338.035 113.848 338.84 114.785C339.652 115.723 340.812 116.191 342.32 116.191C343.109 116.191 343.793 116.129 344.371 116.004C344.957 115.871 345.605 115.648 346.316 115.336V116.426C345.691 116.707 345.066 116.91 344.441 117.035C343.816 117.168 343.098 117.234 342.285 117.234C340.996 117.234 339.914 116.969 339.039 116.438C338.172 115.898 337.516 115.141 337.07 114.164C336.633 113.188 336.414 112.047 336.414 110.742C336.414 109.469 336.625 108.324 337.047 107.309C337.477 106.293 338.102 105.492 338.922 104.906C339.75 104.312 340.766 104.016 341.969 104.016ZM341.957 105.035C340.738 105.035 339.75 105.441 338.992 106.254C338.242 107.059 337.801 108.223 337.668 109.746H345.602C345.602 108.816 345.469 107.996 345.203 107.285C344.938 106.574 344.535 106.023 343.996 105.633C343.465 105.234 342.785 105.035 341.957 105.035ZM357.754 104.262V117H356.57V104.262H357.754ZM357.18 99.5508C357.477 99.5508 357.695 99.6406 357.836 99.8203C357.977 99.9922 358.047 100.227 358.047 100.523C358.047 100.82 357.977 101.055 357.836 101.227C357.695 101.398 357.477 101.484 357.18 101.484C356.898 101.484 356.688 101.398 356.547 101.227C356.406 101.055 356.336 100.82 356.336 100.523C356.336 100.227 356.406 99.9922 356.547 99.8203C356.688 99.6406 356.898 99.5508 357.18 99.5508ZM367.621 104.016C369.051 104.016 370.148 104.391 370.914 105.141C371.68 105.891 372.062 107.066 372.062 108.668V117H370.891V108.738C370.891 107.473 370.602 106.543 370.023 105.949C369.445 105.355 368.605 105.059 367.504 105.059C366.105 105.059 365.035 105.469 364.293 106.289C363.559 107.102 363.191 108.332 363.191 109.98V117H362.008V104.262H362.969L363.145 106.582H363.215C363.441 106.105 363.75 105.676 364.141 105.293C364.539 104.902 365.027 104.594 365.605 104.367C366.184 104.133 366.855 104.016 367.621 104.016ZM379.633 116.215C380 116.215 380.34 116.188 380.652 116.133C380.973 116.078 381.254 116.008 381.496 115.922V116.906C381.246 116.992 380.953 117.066 380.617 117.129C380.281 117.199 379.91 117.234 379.504 117.234C378.785 117.234 378.188 117.102 377.711 116.836C377.234 116.562 376.875 116.152 376.633 115.605C376.391 115.051 376.27 114.348 376.27 113.496V105.246H374.371V104.543L376.258 104.18L376.668 101.18H377.453V104.262H381.426V105.246H377.453V113.426C377.453 114.34 377.621 115.035 377.957 115.512C378.301 115.98 378.859 116.215 379.633 116.215ZM389.055 104.016C390.141 104.016 391.043 104.27 391.762 104.777C392.488 105.285 393.027 105.98 393.379 106.863C393.738 107.746 393.918 108.758 393.918 109.898V110.754H384.719C384.719 112.504 385.121 113.848 385.926 114.785C386.738 115.723 387.898 116.191 389.406 116.191C390.195 116.191 390.879 116.129 391.457 116.004C392.043 115.871 392.691 115.648 393.402 115.336V116.426C392.777 116.707 392.152 116.91 391.527 117.035C390.902 117.168 390.184 117.234 389.371 117.234C388.082 117.234 387 116.969 386.125 116.438C385.258 115.898 384.602 115.141 384.156 114.164C383.719 113.188 383.5 112.047 383.5 110.742C383.5 109.469 383.711 108.324 384.133 107.309C384.562 106.293 385.188 105.492 386.008 104.906C386.836 104.312 387.852 104.016 389.055 104.016ZM389.043 105.035C387.824 105.035 386.836 105.441 386.078 106.254C385.328 107.059 384.887 108.223 384.754 109.746H392.688C392.688 108.816 392.555 107.996 392.289 107.285C392.023 106.574 391.621 106.023 391.082 105.633C390.551 105.234 389.871 105.035 389.043 105.035ZM402.496 104.039C402.832 104.039 403.148 104.059 403.445 104.098C403.742 104.137 404.02 104.191 404.277 104.262L404.09 105.352C403.832 105.281 403.57 105.23 403.305 105.199C403.039 105.16 402.754 105.141 402.449 105.141C401.848 105.141 401.309 105.254 400.832 105.48C400.363 105.707 399.965 106.031 399.637 106.453C399.309 106.875 399.059 107.383 398.887 107.977C398.715 108.57 398.629 109.234 398.629 109.969V117H397.434V104.262H398.453L398.57 106.664H398.641C398.836 106.172 399.109 105.73 399.461 105.34C399.82 104.941 400.254 104.625 400.762 104.391C401.27 104.156 401.848 104.039 402.496 104.039ZM412.387 104.016C413.816 104.016 414.914 104.391 415.68 105.141C416.445 105.891 416.828 107.066 416.828 108.668V117H415.656V108.738C415.656 107.473 415.367 106.543 414.789 105.949C414.211 105.355 413.371 105.059 412.27 105.059C410.871 105.059 409.801 105.469 409.059 106.289C408.324 107.102 407.957 108.332 407.957 109.98V117H406.773V104.262H407.734L407.91 106.582H407.98C408.207 106.105 408.516 105.676 408.906 105.293C409.305 104.902 409.793 104.594 410.371 104.367C410.949 104.133 411.621 104.016 412.387 104.016ZM425.781 104.016C426.867 104.016 427.77 104.27 428.488 104.777C429.215 105.285 429.754 105.98 430.105 106.863C430.465 107.746 430.645 108.758 430.645 109.898V110.754H421.445C421.445 112.504 421.848 113.848 422.652 114.785C423.465 115.723 424.625 116.191 426.133 116.191C426.922 116.191 427.605 116.129 428.184 116.004C428.77 115.871 429.418 115.648 430.129 115.336V116.426C429.504 116.707 428.879 116.91 428.254 117.035C427.629 117.168 426.91 117.234 426.098 117.234C424.809 117.234 423.727 116.969 422.852 116.438C421.984 115.898 421.328 115.141 420.883 114.164C420.445 113.188 420.227 112.047 420.227 110.742C420.227 109.469 420.438 108.324 420.859 107.309C421.289 106.293 421.914 105.492 422.734 104.906C423.562 104.312 424.578 104.016 425.781 104.016ZM425.77 105.035C424.551 105.035 423.562 105.441 422.805 106.254C422.055 107.059 421.613 108.223 421.48 109.746H429.414C429.414 108.816 429.281 107.996 429.016 107.285C428.75 106.574 428.348 106.023 427.809 105.633C427.277 105.234 426.598 105.035 425.77 105.035ZM437.594 116.215C437.961 116.215 438.301 116.188 438.613 116.133C438.934 116.078 439.215 116.008 439.457 115.922V116.906C439.207 116.992 438.914 117.066 438.578 117.129C438.242 117.199 437.871 117.234 437.465 117.234C436.746 117.234 436.148 117.102 435.672 116.836C435.195 116.562 434.836 116.152 434.594 115.605C434.352 115.051 434.23 114.348 434.23 113.496V105.246H432.332V104.543L434.219 104.18L434.629 101.18H435.414V104.262H439.387V105.246H435.414V113.426C435.414 114.34 435.582 115.035 435.918 115.512C436.262 115.98 436.82 116.215 437.594 116.215ZM442 116.168C442 115.824 442.078 115.562 442.234 115.383C442.391 115.195 442.621 115.102 442.926 115.102C443.262 115.102 443.508 115.195 443.664 115.383C443.82 115.562 443.898 115.824 443.898 116.168C443.898 116.512 443.82 116.777 443.664 116.965C443.508 117.152 443.262 117.246 442.926 117.246C442.621 117.246 442.391 117.152 442.234 116.965C442.078 116.777 442 116.512 442 116.168Z" fill="#F7F7F7"/>
<defs>
<filter id="filter0_d_223_241" x="0.304688" y="11.1367" width="413.879" height="80" filterUnits="userSpaceOnUse" color-interpolation-filters="sRGB">
<feFlood flood-opacity="0" result="BackgroundImageFix"/>
<feColorMatrix in="SourceAlpha" type="matrix" values="0 0 0 0 0 0 0 0 0 0 0 0 0 0 0 0 0 0 127 0" result="hardAlpha"/>
<feOffset dy="4"/>
<feGaussianBlur stdDeviation="2"/>
<feComposite in2="hardAlpha" operator="out"/>
<feColorMatrix type="matrix" values="0 0 0 0 0 0 0 0 0 0 0 0 0 0 0 0 0 0 0.25 0"/>
<feBlend mode="normal" in2="BackgroundImageFix" result="effect1_dropShadow_223_241"/>
<feBlend mode="normal" in="SourceGraphic" in2="effect1_dropShadow_223_241" result="shape"/>
</filter>
</defs>
</svg>
