<svg width="27" height="22" viewBox="0 0 27 22" fill="none" xmlns="http://www.w3.org/2000/svg">
<path d="M25.7073 3.3742C24.7502 3.76995 23.7399 4.02251 22.7091 4.12375C23.7468 3.48704 24.5391 2.51865 24.9578 1.37544C23.9538 1.97301 22.8554 2.39544 21.7098 2.62467C21.2603 2.10686 20.7033 1.6933 20.0776 1.41283C19.4519 1.13235 18.7726 0.991697 18.087 1.00067C17.4219 0.989797 16.7612 1.11071 16.143 1.35643C15.5249 1.60215 14.9615 1.96782 14.4853 2.43235C14.0092 2.89688 13.6297 3.45108 13.3688 4.06299C13.1079 4.6749 12.9707 5.33241 12.9652 5.99759C12.9448 6.37667 12.987 6.75651 13.0901 7.12188C11.1138 7.05992 9.17443 6.56989 7.40589 5.68563C5.63736 4.80137 4.08174 3.54392 2.84638 2.00005C2.32184 2.72448 2.05769 3.60499 2.09684 4.49852C2.10333 5.33497 2.31103 6.15758 2.70241 6.89685C3.09379 7.63613 3.65734 8.27035 4.34546 8.74594C3.55793 8.62919 2.79691 8.37552 2.09684 7.9964V8.12132C2.02738 9.26814 2.38445 10.4001 3.09936 11.2996C3.81428 12.199 4.83653 12.8022 5.96945 12.9933C5.52008 13.1026 5.05701 13.1447 4.5953 13.1182C4.25733 13.1385 3.91852 13.0961 3.59592 12.9933C3.91252 14.0053 4.54345 14.89 5.3971 15.519C6.25074 16.148 7.28267 16.4886 8.34302 16.4912C6.51648 17.8914 4.27334 18.6392 1.97195 18.6149C1.55165 18.6353 1.13065 18.5932 0.722717 18.4899C3.34133 20.2382 6.44608 21.1127 9.59219 20.9884C18.9614 20.9884 23.2088 13.2431 23.2088 6.6222V5.99759C24.1953 5.28356 25.0422 4.39433 25.7073 3.3742Z" stroke="white" stroke-linecap="round" stroke-linejoin="round"/>
</svg>
